<svg width="26" height="19" viewBox="0 0 26 19" fill="none" xmlns="http://www.w3.org/2000/svg">
<path d="M20.3437 15.9267C20.0372 15.5624 19.7958 15.5393 19.4523 15.6869C15.5711 17.3286 11.6761 17.3102 7.77169 15.7653C7.50243 15.6592 7.15424 15.341 6.95925 15.7192C6.70856 16.208 7.33994 16.1434 7.51636 16.374C7.81348 16.7706 8.9509 16.457 8.49129 17.4762C7.78098 19.0488 7.48386 19.1917 6.27216 18.726C4.64727 18.108 3.11988 17.3102 1.69463 16.3187C1.33251 16.0697 1.07253 15.8206 1.04003 15.3226C0.752195 10.4619 1.9314 5.98859 4.58228 1.91189C5.23688 0.906551 6.53214 0.943445 7.53028 0.500726C8.01311 0.283979 8.57949 0.26092 9.09481 0.104124C9.73084 -0.0895651 10.2369 -0.0711185 10.4133 0.70825C10.5386 1.26626 10.975 1.28471 11.4161 1.22476C12.7995 1.03568 14.1784 0.95728 15.5619 1.22937C16.1143 1.34005 16.5414 1.19247 16.7318 0.592959C16.9128 0.0303378 17.2192 -0.0987884 17.8645 0.067231C19.1645 0.39927 20.4319 0.814318 21.6807 1.28471C22.0103 1.40922 22.2424 1.61213 22.4514 1.92111C25.2415 6.05777 26.2768 10.6233 25.9379 15.5439C25.91 15.9405 25.7058 16.1112 25.3947 16.3325C23.8813 17.3978 22.2192 18.1633 20.5108 18.8597C19.1552 19.4085 19.0902 18.2187 18.6445 17.5823C18.0177 16.6922 19.0112 16.743 19.3827 16.457C19.6473 16.2495 19.9769 16.125 20.3437 15.9267ZM11.5739 10.5311C11.6343 9.20752 10.6826 8.02233 9.508 7.95315C8.27309 7.87937 7.15888 8.99539 7.11246 10.3512C7.06603 11.6932 8.09203 12.9614 9.2573 13.0167C10.4922 13.0721 11.5089 11.9837 11.5739 10.5311ZM19.898 10.4665C19.8933 9.01383 18.923 7.92548 17.651 7.94854C16.4254 7.9716 15.4458 9.06456 15.4458 10.4204C15.4458 11.8131 16.4625 13.0029 17.6696 13.0167C18.8998 13.0352 19.9026 11.8869 19.898 10.4665Z" fill="#FEFEFF"/>
</svg>
