<svg width="25" height="18" viewBox="0 0 25 18" fill="none" xmlns="http://www.w3.org/2000/svg">
<path d="M12.0223 0.00197482C15.0573 0.00197482 18.0922 -0.00246853 21.1272 0.00197482C23.2113 0.00641817 23.9934 0.801778 23.9978 2.91237C24.0023 6.98247 24.0023 11.057 23.9978 15.1271C23.9934 17.2111 23.198 17.9931 21.0828 17.9975C15.0128 18.002 8.94283 18.002 2.87284 17.9975C0.788785 17.9975 0.00670822 17.1977 0.0022646 15.0871C-0.00217902 11.017 -0.00217902 6.94248 0.0022646 2.87238C0.00670822 0.788447 0.802116 0.00641817 2.91284 0.00197482C5.94783 0.00197482 8.98727 0.00197482 12.0223 0.00197482ZM12.1111 2.24142C9.22722 2.24142 6.34776 2.23254 3.46385 2.25475C3.06392 2.25475 2.38849 1.99259 2.3085 2.49025C2.20186 3.14787 1.91747 3.93878 2.67288 4.5253C5.14798 6.45816 7.56975 8.44878 10.0671 10.3505C11.6223 11.5369 12.3644 11.5147 13.9375 10.355C15.1861 9.4352 16.3637 8.42212 17.5768 7.46236C18.7943 6.50259 19.9941 5.52061 21.2517 4.60973C22.0293 4.04542 21.8071 3.27228 21.7271 2.60133C21.6427 1.88595 20.9406 2.26808 20.5407 2.2592C17.7279 2.22365 14.9195 2.24142 12.1111 2.24142ZM21.7582 7.00469C19.5809 8.74648 17.6035 10.3416 15.6127 11.9235C14.2752 12.9899 12.8354 13.7497 11.0358 13.3498C9.95153 13.1099 9.11169 12.4478 8.2674 11.7857C6.30776 10.2483 4.35257 8.69761 2.23741 7.03135C2.23741 9.9062 2.25074 12.5544 2.22852 15.2071C2.22408 15.767 2.53069 15.767 2.93506 15.767C8.96505 15.7625 14.9906 15.7581 21.0206 15.7759C21.5983 15.7759 21.7805 15.6203 21.776 15.0294C21.7449 12.4478 21.7582 9.86176 21.7582 7.00469Z" fill="white"/>
</svg>
