<svg width="99" height="93" viewBox="0 0 99 93" fill="none" xmlns="http://www.w3.org/2000/svg">
<path d="M49.3401 0.0501383C65.0101 0.0501383 80.6701 0.0901383 96.3401 0.000138284C98.3701 -0.00986172 98.7901 0.600138 98.7801 2.51014C98.7201 27.8401 98.7101 53.1801 98.7901 78.5101C98.8001 80.7101 98.0501 81.0701 96.0801 81.0501C87.1601 80.9501 78.2501 81.1101 69.3301 80.9401C66.8501 80.8901 66.9901 82.1201 67.0001 83.8001C67.0101 85.4501 66.8001 86.8401 69.3201 86.6801C72.6801 86.4701 73.8301 88.3501 72.8601 91.7301C72.5901 92.6901 71.9401 92.5301 71.3201 92.5301C56.7401 92.5401 42.1501 92.5201 27.5701 92.5601C26.2201 92.5601 25.7801 92.0901 25.9101 90.8201C25.9801 90.1601 26.0001 89.4801 25.9101 88.8201C25.6701 87.0701 26.3501 86.3301 28.1201 86.6101C28.2801 86.6401 28.4601 86.6301 28.6201 86.6101C29.6401 86.4501 31.1901 87.1601 31.5601 86.1001C32.0201 84.7601 31.8701 83.1201 31.6601 81.6601C31.4901 80.4901 30.2901 81.0301 29.5701 81.0201C20.5701 80.9801 11.5701 80.9501 2.57011 81.0301C0.680107 81.0701 -0.00989304 80.6901 0.000106961 78.6101C0.070107 53.2001 0.070107 27.7801 0.010107 2.36014C0.000106961 0.520138 0.440107 -0.00986172 2.34011 0.000138284C18.0101 0.0901383 33.6801 0.0501383 49.3401 0.0501383ZM49.6501 5.92014C35.8201 5.92014 22.0001 5.96014 8.17011 5.87014C6.27011 5.86014 5.84011 6.38014 5.85011 8.22014C5.93011 23.9601 5.92011 39.7101 5.85011 55.4501C5.84011 57.2501 6.21011 57.8401 8.15011 57.8301C35.6401 57.7601 63.1301 57.7601 90.6101 57.8301C92.5201 57.8301 92.9301 57.3001 92.9301 55.4701C92.8601 39.7301 92.8401 23.9801 92.9401 8.24014C92.9501 6.10014 92.1501 5.88014 90.3801 5.89014C76.8101 5.94014 63.2301 5.92014 49.6501 5.92014ZM49.3901 75.0701C63.1401 75.0701 76.8901 75.0301 90.6301 75.1201C92.5501 75.1301 93.0501 74.6001 92.9201 72.7601C92.7601 70.5201 92.7601 68.2501 92.9201 66.0201C93.0601 64.1101 92.5301 63.5101 90.5001 63.5301C80.1701 63.6401 69.8401 63.5801 59.5101 63.5801C42.4301 63.5801 25.3501 63.6201 8.27011 63.5301C6.24011 63.5201 5.72011 64.1201 5.86011 66.0201C6.02011 68.2601 6.02011 70.5301 5.86011 72.7601C5.72011 74.6001 6.24011 75.1301 8.15011 75.1101C21.9001 75.0301 35.6501 75.0701 49.3901 75.0701ZM49.2201 86.6301C52.3801 86.6301 55.5601 86.4401 58.7001 86.6901C61.0901 86.8801 61.4501 85.9301 61.3601 83.8701C61.2801 82.0401 61.4001 80.8301 58.8101 80.9401C52.9101 81.1801 46.9901 80.9701 41.0901 81.0301C37.0201 81.0701 37.6101 80.1101 37.4501 84.7601C37.3901 86.4001 38.0401 86.7001 39.4801 86.6601C42.7201 86.5601 45.9701 86.6201 49.2201 86.6301Z" fill="url(#paint0_linear_1_95)"/>
<path d="M47.78 49.0899C46.61 48.8599 45.64 48.6399 44.65 48.4899C43.42 48.3099 43.24 47.5799 43.45 46.5199C45.47 36.3399 47.49 26.1699 49.49 15.9799C49.74 14.7299 50.32 14.4299 51.57 14.6799C55.58 15.4799 55.62 15.4399 54.84 19.4599C53.03 28.7499 51.19 38.0299 49.35 47.3099C49.17 48.2799 49.14 49.4599 47.78 49.0899Z" fill="url(#paint1_linear_1_95)"/>
<path d="M39.69 21.06C38.92 21.88 38.53 22.31 38.12 22.71C35.65 25.19 33.28 27.79 30.66 30.09C28.99 31.56 29.3 32.37 30.76 33.7C33.35 36.05 35.7 38.65 38.26 41.04C39.3 42.01 39.26 42.54 38.26 43.53C35.34 46.41 35.39 46.47 32.53 43.61C29 40.08 25.49 36.51 21.91 33.03C20.99 32.14 20.96 31.63 21.9 30.71C25.89 26.81 29.86 22.88 33.7 18.83C35 17.46 35.79 17.36 36.99 18.83C37.7 19.7 38.75 20.3 39.69 21.06Z" fill="url(#paint2_linear_1_95)"/>
<path d="M78.08 31.5999C77.56 32.1999 77.27 32.5899 76.93 32.9299C72.87 36.9999 68.77 41.0299 64.76 45.1499C63.79 46.1399 63.23 46.2299 62.19 45.1999C59.29 42.3199 59.24 42.3799 62.07 39.5599C64.14 37.4999 66.14 35.3799 68.3 33.4199C69.54 32.2999 69.71 31.5899 68.37 30.3599C65.67 27.8799 63.2 25.1599 60.54 22.6399C59.54 21.6899 59.45 21.1699 60.49 20.1399C63.44 17.2399 63.38 17.1799 66.21 20.0299C69.68 23.5199 73.14 26.9999 76.62 30.4799C77.03 30.8799 77.55 31.1899 78.08 31.5999Z" fill="url(#paint3_linear_1_95)"/>
<defs>
<linearGradient id="paint0_linear_1_95" x1="98.7902" y1="92.5601" x2="-18.1678" y2="50.4" gradientUnits="userSpaceOnUse">
<stop stop-color="#52FCA9"/>
<stop offset="1" stop-color="#5D0EC1"/>
</linearGradient>
<linearGradient id="paint1_linear_1_95" x1="55.2356" y1="49.1595" x2="39.5795" y2="47.3449" gradientUnits="userSpaceOnUse">
<stop stop-color="#52FCA9"/>
<stop offset="1" stop-color="#5D0EC1"/>
</linearGradient>
<linearGradient id="paint2_linear_1_95" x1="39.69" y1="45.7228" x2="16.1391" y2="40.4645" gradientUnits="userSpaceOnUse">
<stop stop-color="#52FCA9"/>
<stop offset="1" stop-color="#5D0EC1"/>
</linearGradient>
<linearGradient id="paint3_linear_1_95" x1="78.08" y1="45.9334" x2="54.7006" y2="40.7649" gradientUnits="userSpaceOnUse">
<stop stop-color="#52FCA9"/>
<stop offset="1" stop-color="#5D0EC1"/>
</linearGradient>
</defs>
</svg>
