<svg width="16" height="17" viewBox="0 0 16 17" fill="none" xmlns="http://www.w3.org/2000/svg">
<path d="M8.02387 16.0008C5.8429 16.0008 3.65884 16.0069 1.47786 15.9977C0.371968 15.9946 0.00231036 15.6243 0.00231036 14.5288C-0.000770119 10.184 -0.000770119 5.83915 0.00231036 1.49431C0.00231036 0.392671 0.368887 0.0100289 1.46862 0.0069431C5.80593 -0.00231437 10.1463 -0.00231437 14.4836 0.0069431C15.6111 0.0100289 15.9931 0.4081 15.9931 1.55911C15.9992 5.85458 15.9992 10.147 15.9931 14.4424C15.99 15.6274 15.6111 15.9946 14.4159 15.9977C12.2873 16.0039 10.1556 16.0008 8.02387 16.0008ZM8.65845 6.91302C8.80632 6.09836 8.37505 6.00579 7.77436 6.07059C7.49711 6.10145 7.20755 6.10453 6.9303 6.07059C6.41895 6.0027 6.28957 6.20945 6.29881 6.70627C6.32653 8.55468 6.31113 10.4031 6.31113 12.2546C6.31113 13.7666 6.31113 13.7203 7.83905 13.7821C8.5876 13.8129 8.72314 13.5445 8.70774 12.8717C8.68002 11.6436 8.61225 10.4062 8.79091 9.1811C8.91105 8.35101 9.36696 7.9406 10.1094 7.97454C10.8518 8.00849 11.2091 8.44359 11.2615 9.15641C11.2892 9.53905 11.32 9.92478 11.3231 10.3105C11.3323 11.2856 11.3385 12.2638 11.32 13.239C11.3107 13.6401 11.4648 13.8561 11.8529 13.7543C12.4659 13.5907 13.5718 14.2079 13.6427 13.4241C13.809 11.5757 13.9014 9.67792 13.5225 7.82334C13.3161 6.81119 12.7216 6.10145 11.6465 5.95333C10.5406 5.79904 9.49942 5.92864 8.65845 6.91302ZM4.82634 9.9433C4.82634 9.25207 4.82634 8.55776 4.82634 7.86654C4.82634 6.01196 4.82634 6.03047 2.98421 6.06442C2.5283 6.07367 2.44205 6.22797 2.44513 6.64147C2.46361 8.43742 2.45437 10.2303 2.45437 12.0262C2.45437 13.8037 2.45437 13.779 4.2164 13.7759C4.76473 13.7759 4.84482 13.563 4.83558 13.097C4.81094 12.0478 4.82634 10.9956 4.82634 9.9433ZM3.61879 5.01524C4.37351 5.01524 4.99268 4.4135 4.99885 3.66982C5.00501 2.94156 4.37043 2.2812 3.64652 2.26577C2.92876 2.25034 2.29111 2.89527 2.28802 3.64513C2.28186 4.4351 2.84559 5.01524 3.61879 5.01524Z" fill="#FEFEFF"/>
</svg>
