<svg width="105" height="103" viewBox="0 0 105 103" fill="none" xmlns="http://www.w3.org/2000/svg">
<path d="M36.4186 51.3401C38.1586 45.5501 35.1286 42.6501 30.2186 40.5601C27.0986 39.2301 24.1986 37.3501 21.2386 35.6601C20.2686 35.1001 19.4886 35.0701 18.5086 35.7001C16.6286 36.9201 14.5986 37.9201 12.7186 39.1501C10.9786 40.2801 9.39863 40.4001 7.64863 39.2001C6.34863 38.3001 4.99863 37.4201 3.53863 36.8401C0.57863 35.6501 -0.0913697 33.5501 0.0286302 30.5301C0.37863 21.5701 -1.16137 24.3001 6.32863 19.6001C9.10863 17.8501 11.3986 17.5001 13.9286 19.6601C14.3686 20.0301 14.8986 20.3201 15.4386 20.5301C19.0586 21.9001 20.9886 24.2701 20.2186 28.3301C19.9886 29.5601 20.5686 30.3001 21.6686 30.8901C26.8686 33.7001 32.0386 36.5501 37.1886 39.4501C38.2586 40.0501 39.1086 40.1001 40.1786 39.4601C42.8986 37.8501 45.6686 36.3301 48.4586 34.8301C49.4386 34.3101 49.9386 33.7101 49.9086 32.5201C49.8286 29.1101 49.8286 25.6901 49.9086 22.2701C49.9386 21.0701 49.5086 20.3301 48.4586 19.9801C42.7986 18.1301 41.4886 14.1001 42.0386 8.57013C42.3086 5.79013 43.1586 4.34013 45.4386 2.65013C50.1486 -0.839867 54.1086 -0.919867 58.8186 2.63013C61.0486 4.31013 62.0386 5.70013 62.2686 8.53013C62.7286 14.0201 61.5686 18.1301 55.8586 19.9601C54.6886 20.3401 54.2986 21.1901 54.3386 22.4601C54.4286 25.7101 54.4386 28.9601 54.3386 32.2101C54.2986 33.5801 54.7786 34.3101 55.9686 34.9201C58.6286 36.2901 61.2486 37.7501 63.8186 39.2901C65.0286 40.0201 65.9786 40.1001 67.2486 39.3701C72.1586 36.5601 77.1086 33.8101 82.1086 31.1601C83.5386 30.4001 84.3886 29.5601 84.0686 27.8901C83.3786 24.2501 85.4186 22.6101 88.2486 20.6801C92.5086 17.7701 95.8486 17.9401 100.119 20.6901C103.199 22.6701 104.499 24.5501 104.299 28.1901C103.879 36.0401 105.309 33.7501 98.4886 38.2001C94.9986 40.4801 92.1686 40.2601 89.2986 37.8001C85.9586 34.9401 82.9386 35.0901 79.3986 37.6301C76.3786 39.8001 72.9286 41.3801 69.6086 43.1101C68.3686 43.7601 67.7586 44.4701 67.8086 45.9701C67.9286 49.5501 67.9186 53.1401 67.8186 56.7101C67.7786 58.0801 68.2686 58.7701 69.4586 59.4001C74.0086 61.8201 78.5286 64.3301 82.9986 66.8901C84.1086 67.5201 84.9686 67.5601 85.9086 66.7501C86.0286 66.6401 86.1886 66.5701 86.3286 66.4801C94.3986 61.5801 94.3886 61.6101 102.389 66.7001C103.649 67.5001 104.199 68.4301 104.249 69.9401C104.539 79.7601 104.469 79.9001 95.6486 84.2601C94.5686 84.7901 93.6386 84.8401 92.5986 84.2101C90.7486 83.1001 88.9086 81.9201 86.9486 81.0101C84.6486 79.9401 83.6586 78.2901 84.0886 75.8401C84.5286 73.3101 83.4286 71.9501 81.1986 70.8301C76.3786 68.3901 71.6786 65.6901 66.9686 63.0401C65.9886 62.4901 65.2186 62.4601 64.2186 63.0501C61.4286 64.7101 58.5986 66.2901 55.7286 67.8101C54.7086 68.3501 54.3186 68.9901 54.3486 70.1501C54.4286 73.4801 54.4386 76.8201 54.3486 80.1501C54.3086 81.4401 54.7486 82.2301 55.9086 82.6301C61.3786 84.4801 62.7886 88.3401 62.2986 93.8501C62.0286 96.8801 61.0086 98.3701 58.5886 100.12C54.0086 103.46 50.2286 103.32 45.6586 100.09C43.1686 98.3301 42.3086 96.7601 42.0286 93.7801C41.5086 88.2601 43.0286 84.4501 48.4586 82.6101C49.6886 82.1901 49.9386 81.2901 49.9086 80.0701C49.8386 76.8201 49.8386 73.5701 49.9086 70.3201C49.9386 69.1001 49.6186 68.3401 48.4786 67.7501C45.2386 66.0701 42.1386 63.0901 38.8286 62.8401C35.6086 62.6001 32.5386 65.7901 29.3986 67.4701C26.9786 68.7701 24.6286 70.2001 22.1686 71.4101C20.7086 72.1301 19.9086 73.0301 20.2286 74.7001C20.9086 78.2101 18.9786 79.8701 16.2586 81.8001C11.8586 84.9001 8.28863 84.6801 3.93863 81.7201C1.21863 79.8701 -0.12137 78.2401 0.00863024 74.8301C0.28863 67.6401 0.17863 67.7801 6.29863 64.0901C9.08863 62.4101 11.5186 62.0401 13.9586 64.1801C17.9986 67.7201 21.7986 67.5001 26.0186 64.3101C28.5786 62.3701 31.5986 61.0101 34.5186 59.5901C36.0186 58.8601 36.6186 57.9801 36.4686 56.3201C36.2986 54.6801 36.4186 53.0001 36.4186 51.3401ZM57.7786 10.4701C57.4786 9.31013 58.3486 7.87013 57.0886 6.99013C55.5386 5.90013 53.9686 4.55013 52.0986 4.31013C49.7186 4.00013 46.4486 7.69013 46.5486 10.2801C46.5986 11.5401 45.8786 13.0701 47.1886 14.0001C48.7286 15.1001 50.3786 16.7501 52.1386 16.6101C53.8686 16.4701 55.5486 15.0501 57.1086 13.9801C58.3586 13.1201 57.4886 11.6401 57.7786 10.4701ZM99.7886 29.2201C99.4486 27.9701 100.419 26.4201 99.0286 25.5001C97.4486 24.4501 95.8286 23.1801 94.0486 22.7901C92.0486 22.3501 88.3386 26.3801 88.4686 28.5101C88.5486 29.8501 87.7086 31.5201 89.0286 32.4701C90.6186 33.6101 92.3586 35.2701 94.2186 35.1201C95.9486 34.9901 97.6486 33.5601 99.2086 32.4801C100.349 31.7001 99.4886 30.3001 99.7886 29.2201ZM15.8686 29.2901C15.5686 28.0701 16.4486 26.5601 15.3186 25.7201C13.7386 24.5401 11.9386 22.9801 10.1886 22.9101C8.56863 22.8501 6.84863 24.4801 5.24863 25.4901C4.00863 26.2701 4.56863 27.6201 4.58863 28.7101C4.60863 29.9801 3.92863 31.5701 5.09863 32.4701C6.58863 33.6201 8.38863 35.1201 10.0486 35.1001C11.8086 35.0801 13.6086 33.5501 15.2686 32.5001C16.4686 31.7201 15.5186 30.3201 15.8686 29.2901ZM57.7786 92.0801C57.4986 90.9101 58.3486 89.4201 57.1286 88.5801C55.5686 87.5101 53.9986 86.1701 52.1186 85.9501C49.7786 85.6701 46.4486 89.2001 46.5686 91.6101C46.6286 92.9501 45.8486 94.5901 47.2286 95.5701C48.7686 96.6601 50.5086 98.1901 52.1686 98.1901C53.8286 98.1901 55.5386 96.6301 57.1086 95.5601C58.3486 94.7101 57.4886 93.2401 57.7786 92.0801ZM15.8686 73.7401C15.5586 72.5301 16.4586 71.0101 15.3186 70.1801C13.7286 69.0201 11.8986 67.5001 10.1386 67.4501C8.49863 67.4101 6.75863 68.9901 5.16863 70.0301C3.98863 70.8101 4.55863 72.1901 4.58863 73.2801C4.61863 74.5401 3.90863 76.1001 5.16863 77.0201C6.69863 78.1401 8.45863 79.7301 10.0886 79.6901C11.8386 79.6501 13.6186 78.0601 15.2686 76.9701C16.4386 76.1901 15.5386 74.7901 15.8686 73.7401ZM99.7886 73.6801C99.4386 72.4701 100.429 70.9001 99.0486 69.9901C97.4686 68.9601 95.6986 67.4001 94.0686 67.4601C92.2986 67.5301 90.5286 69.1101 88.8986 70.2301C87.9686 70.8701 88.4486 72.1001 88.4786 73.0501C88.5186 74.3301 87.8286 75.9501 88.9186 76.8401C90.4386 78.0801 92.2786 79.6001 94.0386 79.6801C95.6586 79.7501 97.3886 78.1301 98.9986 77.1401C100.359 76.3001 99.4886 74.8501 99.7886 73.6801ZM49.8886 63.4301C49.8886 59.5801 49.8786 56.0501 49.8986 52.5201C49.9086 51.7201 49.4586 51.3501 48.8486 51.0101C46.7386 49.8501 44.6386 48.7001 42.5586 47.4801C41.3886 46.7901 40.8086 46.7801 40.8586 48.4101C40.9386 51.3101 40.8986 54.2201 40.8786 57.1201C40.8686 57.9101 40.9686 58.5401 41.7786 58.9701C44.3786 60.3701 46.9686 61.8201 49.8886 63.4301ZM54.3586 63.4401C57.3086 61.8201 59.9086 60.3901 62.5086 58.9701C63.0586 58.6701 63.3886 58.2901 63.3786 57.6101C63.3586 54.0901 63.3686 50.5801 63.3686 46.6101C60.3486 48.3001 57.7786 49.7701 55.1786 51.1701C54.3486 51.6201 54.3586 52.3001 54.3586 53.0601C54.3586 56.3801 54.3586 59.7001 54.3586 63.4401ZM60.9986 42.8001C58.0986 41.1901 55.6286 39.8201 53.1686 38.4501C52.6486 38.1601 52.1686 37.8701 51.5486 38.2201C48.9286 39.6901 46.2886 41.1501 43.3086 42.8101C46.2186 44.4301 48.6786 45.7901 51.1286 47.1901C51.8586 47.6101 52.4986 47.5801 53.2286 47.1701C55.6486 45.7701 58.1186 44.4101 60.9986 42.8001Z" fill="url(#paint0_linear_1_138)"/>
<path d="M37.6687 13.1601C38.9487 13.3401 39.8887 13.9801 39.9087 15.3601C39.9287 16.7001 39.1787 17.5701 37.7887 17.6001C36.3987 17.6301 35.5787 16.8001 35.5187 15.4801C35.4687 14.1201 36.3587 13.4001 37.6687 13.1601Z" fill="url(#paint1_linear_1_138)"/>
<path d="M12.3787 58.0601C12.1487 59.3601 11.4087 60.1601 10.0387 60.1001C8.64867 60.0401 7.90867 59.1201 7.97867 57.8001C8.04867 56.4801 8.88867 55.6401 10.2687 55.7301C11.6187 55.8201 12.2987 56.6901 12.3787 58.0601Z" fill="url(#paint2_linear_1_138)"/>
<path d="M66.5687 17.6301C65.1287 17.4301 64.2887 16.6901 64.3487 15.3301C64.4087 13.9901 65.2886 13.1501 66.6186 13.2101C67.9186 13.2701 68.7987 14.1301 68.7387 15.4801C68.6887 16.8101 67.8087 17.5201 66.5687 17.6301Z" fill="url(#paint3_linear_1_138)"/>
<path d="M96.3686 44.6401C96.2086 45.9501 95.5186 46.8701 94.1586 46.8801C92.8186 46.8901 91.9486 46.0501 91.9386 44.7001C91.9286 43.3601 92.7386 42.4901 94.0986 42.4601C95.4786 42.4301 96.1786 43.3101 96.3686 44.6401Z" fill="url(#paint4_linear_1_138)"/>
<path d="M96.3687 57.7601C96.2387 59.1401 95.6087 60.0301 94.2287 60.0901C92.8587 60.1501 92.0187 59.3501 91.9387 58.0201C91.8587 56.6601 92.6787 55.8301 94.0187 55.7501C95.4087 55.6701 96.0987 56.5301 96.3687 57.7601Z" fill="url(#paint5_linear_1_138)"/>
<path d="M26.7386 80.6102C26.5886 82.0002 25.8386 82.8302 24.4886 82.7902C23.1686 82.7602 22.2986 81.9602 22.3286 80.5802C22.3586 79.2402 23.1786 78.4302 24.5386 78.4402C25.9386 78.4502 26.5786 79.3402 26.7386 80.6102Z" fill="url(#paint6_linear_1_138)"/>
<path d="M79.7586 82.8502C78.3886 82.7002 77.5386 81.9902 77.5686 80.6402C77.5986 79.3202 78.3586 78.4602 79.7486 78.4702C81.1086 78.4802 81.8886 79.2902 81.9086 80.6402C81.9286 82.0402 81.0086 82.6502 79.7586 82.8502Z" fill="url(#paint7_linear_1_138)"/>
<path d="M10.1187 42.41C11.4887 42.63 12.3587 43.3 12.3387 44.69C12.3087 46.05 11.4587 46.88 10.1387 46.88C8.77867 46.88 7.96867 45.97 7.97867 44.64C7.97867 43.31 8.82867 42.56 10.1187 42.41Z" fill="url(#paint8_linear_1_138)"/>
<path d="M31.0287 81.6901C32.3487 81.7701 33.2487 82.4401 33.3187 83.7801C33.3887 85.1001 32.6287 85.9901 31.2687 86.0801C29.8787 86.1701 29.0587 85.3201 28.9687 84.0301C28.8787 82.7101 29.6787 81.9001 31.0287 81.6901Z" fill="url(#paint9_linear_1_138)"/>
<path d="M75.3386 83.9402C75.0986 85.2002 74.4886 86.1402 73.0886 86.1002C71.7386 86.0602 70.9186 85.2402 70.9186 83.9002C70.9286 82.5502 71.7886 81.7402 73.1286 81.7402C74.4886 81.7302 75.1686 82.6202 75.3386 83.9402Z" fill="url(#paint10_linear_1_138)"/>
<path d="M37.6586 84.9401C39.1386 85.1601 39.9686 85.8801 39.9086 87.2501C39.8486 88.6101 38.9386 89.4201 37.6386 89.3701C36.3486 89.3201 35.4686 88.4401 35.5186 87.0901C35.5686 85.7501 36.5086 85.1101 37.6586 84.9401Z" fill="url(#paint11_linear_1_138)"/>
<path d="M68.7986 87.2501C68.5086 88.5301 67.7786 89.4301 66.4486 89.3601C65.1386 89.3001 64.3086 88.4201 64.3586 87.0701C64.4086 85.7101 65.2886 84.9501 66.6286 85.0001C67.9886 85.0601 68.6386 85.9601 68.7986 87.2501Z" fill="url(#paint12_linear_1_138)"/>
<path d="M26.7387 21.8701C26.6287 23.1701 26.0087 24.0701 24.5887 24.0901C23.2087 24.1101 22.3787 23.3301 22.3487 21.9501C22.3187 20.6701 23.0987 19.9401 24.3487 19.8301C25.7387 19.7201 26.4987 20.4801 26.7387 21.8701Z" fill="url(#paint13_linear_1_138)"/>
<path d="M73.0086 16.4101C74.4786 16.6001 75.3086 17.3801 75.2886 18.7001C75.2686 20.0101 74.4286 20.9101 73.0786 20.8701C71.7586 20.8401 70.9186 19.9901 70.9186 18.6401C70.9186 17.2701 71.8686 16.6501 73.0086 16.4101Z" fill="url(#paint14_linear_1_138)"/>
<path d="M31.1586 20.9601C29.7186 20.6701 28.8886 19.8901 28.9686 18.5601C29.0486 17.2601 29.8886 16.3801 31.2586 16.4901C32.5786 16.5901 33.3886 17.4601 33.3186 18.8001C33.2486 20.1501 32.2986 20.7701 31.1586 20.9601Z" fill="url(#paint15_linear_1_138)"/>
<path d="M79.7786 19.7901C81.0286 19.9401 81.9586 20.5501 81.8986 21.9901C81.8386 23.3701 80.9986 24.1001 79.6186 24.0701C78.3286 24.0401 77.6086 23.2401 77.5686 22.0101C77.5286 20.6401 78.3286 19.8801 79.7786 19.7901Z" fill="url(#paint16_linear_1_138)"/>
<path d="M12.3686 51.1601C12.2786 52.5801 11.5086 53.3801 10.1686 53.4301C8.92862 53.4901 8.09862 52.7101 7.98862 51.4901C7.85862 50.1101 8.69862 49.2101 10.0086 49.1101C11.3286 49.0101 12.1386 49.8601 12.3686 51.1601Z" fill="url(#paint17_linear_1_138)"/>
<path d="M94.0987 53.4901C92.8387 53.2801 91.9187 52.6301 91.9387 51.2701C91.9487 49.9201 92.8687 49.1001 94.1387 49.1001C95.4187 49.1001 96.3187 49.9401 96.3087 51.2901C96.3087 52.6301 95.4287 53.3101 94.0987 53.4901Z" fill="url(#paint18_linear_1_138)"/>
<defs>
<linearGradient id="paint0_linear_1_138" x1="104.327" y1="102.569" x2="-20.504" y2="59.6868" gradientUnits="userSpaceOnUse">
<stop stop-color="#52FCA9"/>
<stop offset="1" stop-color="#5D0EC1"/>
</linearGradient>
<linearGradient id="paint1_linear_1_138" x1="39.9091" y1="17.6009" x2="34.6231" y2="15.8351" gradientUnits="userSpaceOnUse">
<stop stop-color="#52FCA9"/>
<stop offset="1" stop-color="#5D0EC1"/>
</linearGradient>
<linearGradient id="paint2_linear_1_138" x1="12.3787" y1="60.1032" x2="7.09597" y2="58.309" gradientUnits="userSpaceOnUse">
<stop stop-color="#52FCA9"/>
<stop offset="1" stop-color="#5D0EC1"/>
</linearGradient>
<linearGradient id="paint3_linear_1_138" x1="68.7415" y1="17.6301" x2="63.4565" y2="15.8561" gradientUnits="userSpaceOnUse">
<stop stop-color="#52FCA9"/>
<stop offset="1" stop-color="#5D0EC1"/>
</linearGradient>
<linearGradient id="paint4_linear_1_138" x1="96.3686" y1="46.8802" x2="91.0514" y2="45.0806" gradientUnits="userSpaceOnUse">
<stop stop-color="#52FCA9"/>
<stop offset="1" stop-color="#5D0EC1"/>
</linearGradient>
<linearGradient id="paint5_linear_1_138" x1="96.3687" y1="60.0933" x2="91.0648" y2="58.2661" gradientUnits="userSpaceOnUse">
<stop stop-color="#52FCA9"/>
<stop offset="1" stop-color="#5D0EC1"/>
</linearGradient>
<linearGradient id="paint6_linear_1_138" x1="26.7386" y1="82.7915" x2="21.4572" y2="80.9835" gradientUnits="userSpaceOnUse">
<stop stop-color="#52FCA9"/>
<stop offset="1" stop-color="#5D0EC1"/>
</linearGradient>
<linearGradient id="paint7_linear_1_138" x1="81.909" y1="82.8502" x2="76.6868" y2="81.1022" gradientUnits="userSpaceOnUse">
<stop stop-color="#52FCA9"/>
<stop offset="1" stop-color="#5D0EC1"/>
</linearGradient>
<linearGradient id="paint8_linear_1_138" x1="12.339" y1="46.88" x2="7.07704" y2="45.1464" gradientUnits="userSpaceOnUse">
<stop stop-color="#52FCA9"/>
<stop offset="1" stop-color="#5D0EC1"/>
</linearGradient>
<linearGradient id="paint9_linear_1_138" x1="33.3231" y1="86.0866" x2="28.0776" y2="84.3292" gradientUnits="userSpaceOnUse">
<stop stop-color="#52FCA9"/>
<stop offset="1" stop-color="#5D0EC1"/>
</linearGradient>
<linearGradient id="paint10_linear_1_138" x1="75.3386" y1="86.1014" x2="70.0459" y2="84.2898" gradientUnits="userSpaceOnUse">
<stop stop-color="#52FCA9"/>
<stop offset="1" stop-color="#5D0EC1"/>
</linearGradient>
<linearGradient id="paint11_linear_1_138" x1="39.9117" y1="89.3723" x2="34.6252" y2="87.6017" gradientUnits="userSpaceOnUse">
<stop stop-color="#52FCA9"/>
<stop offset="1" stop-color="#5D0EC1"/>
</linearGradient>
<linearGradient id="paint12_linear_1_138" x1="68.7986" y1="89.3639" x2="63.4838" y2="87.5377" gradientUnits="userSpaceOnUse">
<stop stop-color="#52FCA9"/>
<stop offset="1" stop-color="#5D0EC1"/>
</linearGradient>
<linearGradient id="paint13_linear_1_138" x1="26.7387" y1="24.0905" x2="21.4969" y2="22.2704" gradientUnits="userSpaceOnUse">
<stop stop-color="#52FCA9"/>
<stop offset="1" stop-color="#5D0EC1"/>
</linearGradient>
<linearGradient id="paint14_linear_1_138" x1="75.289" y1="20.8714" x2="70.0194" y2="19.1279" gradientUnits="userSpaceOnUse">
<stop stop-color="#52FCA9"/>
<stop offset="1" stop-color="#5D0EC1"/>
</linearGradient>
<linearGradient id="paint15_linear_1_138" x1="33.3228" y1="20.9601" x2="28.0596" y2="19.23" gradientUnits="userSpaceOnUse">
<stop stop-color="#52FCA9"/>
<stop offset="1" stop-color="#5D0EC1"/>
</linearGradient>
<linearGradient id="paint16_linear_1_138" x1="81.9014" y1="24.071" x2="76.7103" y2="22.2959" gradientUnits="userSpaceOnUse">
<stop stop-color="#52FCA9"/>
<stop offset="1" stop-color="#5D0EC1"/>
</linearGradient>
<linearGradient id="paint17_linear_1_138" x1="12.3686" y1="53.4334" x2="7.10891" y2="51.6315" gradientUnits="userSpaceOnUse">
<stop stop-color="#52FCA9"/>
<stop offset="1" stop-color="#5D0EC1"/>
</linearGradient>
<linearGradient id="paint18_linear_1_138" x1="96.3088" y1="53.4901" x2="91.0561" y2="51.724" gradientUnits="userSpaceOnUse">
<stop stop-color="#52FCA9"/>
<stop offset="1" stop-color="#5D0EC1"/>
</linearGradient>
</defs>
</svg>
