<svg width="22" height="17" viewBox="0 0 22 17" fill="none" xmlns="http://www.w3.org/2000/svg">
<path d="M20.0777 2.56203C20.7323 2.68623 21.2792 2.26705 21.9977 2.19331C21.7023 2.74057 21.391 3.16363 20.9599 3.4392C20.1775 3.94376 20.0258 4.62299 19.9819 5.48851C19.6466 12.207 14.1581 17.1362 7.25258 16.9965C5.0931 16.9499 3.0893 16.4492 0.997681 15.2305C3.3288 15.1024 5.35655 14.7881 7.12883 13.3559C6.23072 13.2006 5.42041 13.0065 4.74982 12.502C4.05527 11.978 3.5164 11.3415 3.20106 10.4216C3.71998 10.3983 4.19099 10.375 4.92545 10.3362C2.92963 9.41637 1.70021 8.17436 1.60441 6.09011C2.24307 6.16385 2.69812 6.63349 3.30085 6.43166C1.45273 4.42504 1.13739 2.82984 2.27101 0.885316C3.57229 2.3408 5.07713 3.50518 6.88135 4.27755C8.10679 4.80541 9.39209 5.08098 10.7093 5.2634C11.2203 5.33326 11.3161 5.19354 11.2801 4.69673C11.1404 2.80267 11.9507 1.33554 13.6831 0.493307C15.3277 -0.306237 16.9642 -0.135461 18.4212 1.01728C19.1956 1.63052 19.8422 0.986229 20.5447 0.854265C20.8122 0.803809 21.0996 0.446731 21.3311 0.784402C21.4907 1.01728 21.2153 1.26568 21.0557 1.46363C20.7523 1.83623 20.417 2.18554 20.0777 2.56203Z" fill="#FEFEFF"/>
</svg>
