<svg width="69" height="98" viewBox="0 0 69 98" fill="none" xmlns="http://www.w3.org/2000/svg">
<path d="M8.36868 97.9998C8.03915 97.6639 7.57526 97.7119 7.16968 97.5931C3.01244 96.3555 0.00858153 92.3924 0.00858153 88.0454C-0.00155807 62.3551 -0.00409297 36.6622 0.00858153 10.9718C0.0111164 5.48822 4.53338 1.01748 10.0569 1.0099C23.6465 0.994746 37.2336 0.994746 50.8232 1.0099C56.3341 1.01748 60.831 5.50085 60.8361 11.0047C60.8513 29.5949 60.8411 48.1851 60.8411 66.7753C60.8411 67.1517 60.8411 67.528 60.8411 67.9574C61.9768 67.7579 63.049 67.5659 64.1619 67.8362C66.9959 68.5257 68.9655 70.8116 68.9807 73.729C69.0187 81.0817 68.9883 88.437 69.001 95.7897C69.0035 96.8101 68.418 97.4365 67.6854 97.9973C67.1784 97.9973 66.6714 97.9973 66.1644 97.9973C65.0922 97.2875 64.826 96.2822 64.8336 95.0319C64.8792 88.0555 64.8564 81.0792 64.8539 74.1028C64.8539 72.6277 64.101 71.7613 62.8513 71.7714C61.6244 71.779 60.8563 72.6782 60.8462 74.1381C60.8386 75.3379 60.8563 76.5377 60.8411 77.7375C60.8259 78.9069 60.0376 79.7531 58.945 79.8087C57.7739 79.8693 56.9196 79.1216 56.7954 77.8991C56.7574 77.5228 56.7675 77.1439 56.765 76.765C56.7549 75.0601 56.7954 73.3551 56.727 71.6527C56.6788 70.4504 55.8246 69.723 54.6864 69.7558C53.5178 69.7886 52.7852 70.6045 52.7649 71.9861C52.7371 73.8805 52.7878 75.7749 52.7421 77.6667C52.7092 79.0358 51.8524 79.8516 50.6179 79.8087C49.4544 79.7708 48.6812 78.8968 48.6787 77.591C48.6711 75.0651 48.6863 72.5393 48.6736 70.016C48.666 68.6166 47.7839 67.6543 46.595 67.6972C45.4315 67.7402 44.6685 68.6571 44.6659 70.0362C44.6609 72.5292 44.6761 75.0247 44.6609 77.5177C44.6507 78.9953 43.7052 79.9223 42.3795 79.8061C41.2616 79.7076 40.5315 78.8034 40.529 77.4672C40.5214 71.7537 40.5264 66.0403 40.5264 60.3268C40.5264 58.7482 40.5416 57.1695 40.5188 55.5909C40.5011 54.434 39.7609 53.6637 38.6684 53.598C37.3401 53.5197 36.5162 54.4239 36.5162 55.9925C36.5112 64.4844 36.5086 72.9763 36.5238 81.4656C36.5264 82.2714 36.3717 82.9735 35.7 83.4686C34.9598 84.0117 34.1765 83.893 33.3577 83.6126C30.7645 82.7285 28.1637 81.8596 25.5553 81.0261C24.4019 80.6573 23.6541 80.9428 23.1826 81.7965C22.734 82.6124 22.957 83.4661 23.829 84.2011C25.4235 85.5474 27.0306 86.8785 28.6175 88.2324C30.9977 90.2631 33.5352 92.1196 35.6898 94.4005C37.0967 95.8907 36.8204 97.1688 34.9953 97.9948C26.113 97.9998 17.2408 97.9998 8.36868 97.9998ZM56.7625 65.9898C56.7625 65.5957 56.7625 65.2876 56.7625 64.9794C56.7625 49.4177 56.7523 33.8535 56.7853 18.2917C56.7878 17.3496 56.5217 17.1728 55.6294 17.1728C38.8382 17.2006 22.0495 17.2006 5.25836 17.1728C4.32552 17.1703 4.05428 17.3546 4.05682 18.3422C4.08977 39.1123 4.08217 59.8848 4.08217 80.6548C4.08217 80.8443 4.09991 81.0362 4.07963 81.2231C4.03147 81.6803 4.23173 81.8192 4.6804 81.8192C9.24323 81.8066 13.8035 81.8091 18.3663 81.8167C18.7821 81.8167 18.9342 81.6929 19.0457 81.256C19.9659 77.692 23.3322 75.8911 26.8405 77.0605C28.4248 77.5884 30.0117 78.1088 31.5681 78.7099C32.3362 79.0054 32.4452 78.8034 32.4426 78.0658C32.4173 72.4787 32.4274 66.8915 32.4274 61.3043C32.4274 59.6322 32.4274 59.6322 30.7316 59.6322C25.3779 59.6322 20.0242 59.6322 14.6704 59.6322C13.9607 59.6322 13.2661 59.5767 12.749 59.0134C12.166 58.3794 11.9835 57.6444 12.3257 56.8336C12.6983 55.9546 13.3802 55.5631 14.3409 55.5631C20.0444 55.5732 25.7454 55.553 31.449 55.5858C32.1841 55.5909 32.468 55.4545 32.544 54.6538C32.8001 51.9334 35.3907 49.597 38.1208 49.5112C41.8775 49.3924 44.6355 52.037 44.6583 55.803C44.6735 58.2961 44.6583 60.7916 44.6634 63.2846C44.6634 63.5978 44.5164 63.9944 45.1628 63.8529C47.7129 63.2922 49.8422 64.0171 51.4924 66.0554C51.6901 66.3005 51.8346 66.4368 52.1895 66.2575C53.6344 65.5326 55.1452 65.4518 56.7625 65.9898ZM30.364 13.1314C36.7646 13.1314 43.1627 13.1314 49.5634 13.1314C51.718 13.1314 53.8727 13.1365 56.0274 13.1264C56.329 13.1239 56.7194 13.3032 56.7726 12.7071C57.2289 7.68571 54.1313 5.04367 50.2503 5.0563C37.041 5.09419 23.829 5.06893 10.6171 5.07146C9.56769 5.07146 8.53345 5.16744 7.57273 5.64735C4.88827 6.98605 3.98331 9.25931 4.05682 12.1135C4.0771 12.9167 4.21905 13.1567 5.08092 13.1542C13.5095 13.1163 21.938 13.1314 30.364 13.1314ZM28.8355 93.9357C28.6099 93.6932 28.5541 93.6225 28.4857 93.5619C25.6567 91.0436 22.5641 88.8184 19.9557 86.0475C19.7986 85.8808 19.6338 85.8757 19.4487 85.8757C14.5057 85.8732 9.56262 85.8757 4.61957 85.8707C4.3027 85.8707 4.06442 85.8884 4.0771 86.3077C4.10498 87.3458 4.01119 88.3915 4.29003 89.4119C5.07331 92.2813 7.34965 93.9231 10.6045 93.9307C16.4018 93.9433 22.2016 93.9332 27.999 93.9332C28.2094 93.9357 28.4223 93.9357 28.8355 93.9357Z" fill="url(#paint0_linear_6_505)"/>
<defs>
<linearGradient id="paint0_linear_6_505" x1="69.001" y1="97.9998" x2="-18.2673" y2="77.0338" gradientUnits="userSpaceOnUse">
<stop stop-color="#52FCA9"/>
<stop offset="1" stop-color="#5D0EC1"/>
</linearGradient>
</defs>
</svg>
