<svg width="71" height="94" viewBox="0 0 71 94" fill="none" xmlns="http://www.w3.org/2000/svg">
<path d="M0.00892562 46.6703C0.00892562 34.5903 0.00892562 22.5103 0.00892562 10.4303C0.00892562 8.76027 0.0489256 7.08027 0.718926 5.52027C2.38893 1.63027 5.46893 0.000267807 9.62893 0.0102678C21.4589 0.0502678 33.2889 0.0602678 45.1189 0.000267807C48.3189 -0.0197322 50.8789 1.08027 53.1089 3.37027C57.5789 7.97027 62.1089 12.5103 66.7189 16.9703C69.0889 19.2703 70.1889 21.9303 70.1889 25.2003C70.1589 44.6103 70.1989 64.0203 70.1589 83.4303C70.1489 89.9403 66.7889 93.3303 60.3289 93.3503C43.4989 93.4003 26.6689 93.4003 9.84893 93.3503C3.39893 93.3303 0.0489256 89.9203 0.0289256 83.4103C-0.0210744 71.1603 0.00892562 58.9203 0.00892562 46.6703ZM8.85892 46.6003C8.85892 58.5103 8.88893 70.4303 8.82893 82.3403C8.81892 83.9303 9.00893 84.6703 10.9189 84.6603C27.0789 84.5803 43.2489 84.5903 59.4089 84.6503C60.9289 84.6603 61.3789 84.2803 61.3789 82.7103C61.3189 66.4603 61.3189 50.2203 61.3889 33.9703C61.3989 32.2603 60.6989 32.1303 59.3389 32.1503C54.1789 32.2103 49.0089 32.1803 43.8389 32.1703C39.5589 32.1603 37.9389 30.5803 37.9189 26.3103C37.8989 21.1403 37.8489 15.9803 37.9489 10.8103C37.9789 9.16027 37.4989 8.70027 35.8589 8.72027C27.6089 8.80027 19.3589 8.83027 11.1189 8.70027C9.14892 8.68027 8.80892 9.30027 8.81892 11.1003C8.89892 22.9303 8.85892 34.7703 8.85892 46.6003ZM46.8289 10.3203C46.8289 14.1403 46.8289 18.1003 46.8289 22.0603C46.8289 22.6703 46.8489 23.2603 47.6889 23.2603C51.7689 23.2603 55.8489 23.2603 59.7389 23.2603C55.3789 18.8803 51.1289 14.6203 46.8289 10.3203Z" fill="url(#paint0_linear_1_81)"/>
<path d="M35.0189 67.8203C30.2789 67.8203 25.5489 67.8403 20.8089 67.8103C17.9689 67.7903 17.5689 67.3503 17.5089 64.4403C17.3689 58.2403 17.3689 58.2403 23.5889 58.2403C32.0689 58.2403 40.5389 58.2303 49.0189 58.2403C52.1189 58.2403 52.6289 58.7603 52.6889 61.8503C52.8089 67.8103 52.8089 67.8103 46.9889 67.8103C42.9989 67.8203 39.0089 67.8203 35.0189 67.8203Z" fill="url(#paint1_linear_1_81)"/>
<path d="M35.1189 43.0602C39.9389 43.0602 44.7589 43.1402 49.5789 43.0302C51.8789 42.9802 52.6289 43.9702 52.7089 46.1302C52.9189 52.6102 52.9489 52.6302 46.4189 52.6302C38.1089 52.6302 29.7989 52.6302 21.4889 52.6302C18.0389 52.6302 17.5489 52.1502 17.5089 48.8302C17.4489 43.0702 17.4489 43.0702 23.1589 43.0702C27.1389 43.0602 31.1289 43.0602 35.1189 43.0602Z" fill="url(#paint2_linear_1_81)"/>
<defs>
<linearGradient id="paint0_linear_1_81" x1="70.1889" y1="93.3878" x2="-18.0217" y2="70.9964" gradientUnits="userSpaceOnUse">
<stop stop-color="#52FCA9"/>
<stop offset="1" stop-color="#5D0EC1"/>
</linearGradient>
<linearGradient id="paint1_linear_1_81" x1="52.7172" y1="67.8268" x2="34.1573" y2="44.7934" gradientUnits="userSpaceOnUse">
<stop stop-color="#52FCA9"/>
<stop offset="1" stop-color="#5D0EC1"/>
</linearGradient>
<linearGradient id="paint2_linear_1_81" x1="52.7698" y1="52.6302" x2="34.1879" y2="29.5763" gradientUnits="userSpaceOnUse">
<stop stop-color="#52FCA9"/>
<stop offset="1" stop-color="#5D0EC1"/>
</linearGradient>
</defs>
</svg>
