<svg width="96" height="87" viewBox="0 0 96 87" fill="none" xmlns="http://www.w3.org/2000/svg">
<path d="M47.4151 87C42.4636 87 37.4883 86.9935 32.5172 86.9826C26.1107 86.9674 20.9725 84.0443 17.6584 78.5303C12.3356 69.6676 7.1691 60.6051 2.38049 52.1333C-0.829295 46.4564 -0.792376 40.4169 2.4869 34.6641C7.08006 26.6049 12.2856 17.4707 17.5412 8.64921C20.8747 3.05273 26.0499 0.0688068 32.5064 0.0188575C36.0636 -0.00720293 39.6752 -0.000687819 43.1673 0.0058273C44.7396 0.007999 46.3119 0.0123424 47.8842 0.0123424H47.8864C49.7128 0.0145141 51.5392 0.0145141 53.3656 0.0123424C56.5233 0.0101707 59.6788 0.007999 62.8342 0.0210292C69.2147 0.0470897 74.3052 2.91157 77.5584 8.30826C83.0202 17.3664 88.2302 26.5202 93.047 35.0658C96.1721 40.608 96.1373 46.5129 92.9514 52.1441C88.4126 60.1664 83.1158 69.4809 77.6844 78.5238C74.3725 84.04 69.2364 86.9631 62.8321 86.9783C57.7481 86.9935 52.5947 87 47.4151 87ZM38.4612 4.63373C36.4893 4.63373 34.5065 4.63807 32.5433 4.65328C27.7265 4.6902 24.0172 6.8315 21.5219 11.0207C16.2903 19.8031 11.0955 28.9177 6.51324 36.9574C4.0527 41.2747 4.02012 45.6138 6.41551 49.853C11.1889 58.2966 16.3359 67.3265 21.6327 76.1436C24.0997 80.2503 27.7655 82.3373 32.5303 82.3482C42.6938 82.3721 52.8857 82.3721 62.8212 82.346C67.5838 82.3352 71.2496 80.246 73.7145 76.1393C79.1155 67.1419 84.3971 57.8579 88.9208 49.8617C91.2988 45.6594 91.3292 41.4463 89.012 37.3396C84.2125 28.8265 79.0221 19.7054 73.5929 10.6993C71.1866 6.70554 67.5599 4.67282 62.8169 4.65328C59.6679 4.64025 56.5189 4.64242 53.3678 4.64459C51.5392 4.64676 49.7106 4.64676 47.8821 4.64459C46.3076 4.64459 44.7331 4.64242 43.1586 4.63807C41.6123 4.6359 40.04 4.63373 38.4612 4.63373Z" fill="url(#paint0_linear_0_1)"/>
<path d="M47.4151 86.9998C42.4636 86.9998 37.4883 86.9933 32.5172 86.9824C26.1107 86.9672 20.9725 84.0441 17.6584 78.5301C12.3356 69.6674 7.1691 60.6049 2.38049 52.133C-0.829295 46.4562 -0.792376 40.4167 2.4869 34.6638C7.08006 26.6047 12.2856 17.4705 17.5412 8.64899C20.8747 3.05251 26.0499 0.0685846 32.5064 0.0186354C36.1548 -0.00742504 39.8576 0.00126178 43.4366 0.00777689C44.9198 0.0121203 46.4031 0.014292 47.8864 0.014292C49.5695 0.014292 51.2547 0.014292 52.9378 0.0121203C56.2366 0.00777689 59.5354 0.00777689 62.8342 0.0208071C69.2147 0.0468676 74.3052 2.91135 77.5584 8.30803C83.0202 17.3662 88.2302 26.52 93.047 35.0656C96.1721 40.6078 96.1373 46.5127 92.9514 52.1439C88.4126 60.1662 83.1158 69.4806 77.6844 78.5236C74.3725 84.0397 69.2364 86.9629 62.8321 86.9781C57.7481 86.9933 52.5947 86.9998 47.4151 86.9998ZM38.37 4.63351C36.4263 4.63351 34.4761 4.63785 32.5411 4.65305C27.7243 4.68997 24.015 6.83127 21.5197 11.0205C16.2881 19.8029 11.0934 28.9175 6.51107 36.9572C4.05053 41.2745 4.01795 45.6136 6.41334 49.8528C11.1868 58.2963 16.3337 67.3263 21.6305 76.1434C24.0975 80.2501 27.7634 82.3371 32.5281 82.348C42.6917 82.3719 52.8835 82.3719 62.819 82.3458C67.5816 82.335 71.2474 80.2458 73.7123 76.1391C79.1133 67.1417 84.3949 57.8577 88.9186 49.8614C91.2966 45.6592 91.327 41.4461 89.0098 37.3394C84.2103 28.8263 79.02 19.7051 73.5907 10.6991C71.1844 6.70532 67.5577 4.6726 62.8147 4.65305C59.5224 4.64002 56.2323 4.6422 52.94 4.64437C51.2547 4.64437 49.5673 4.64654 47.8821 4.64654C46.3966 4.64654 44.9112 4.6422 43.4235 4.64002C41.7622 4.63785 40.0704 4.63351 38.37 4.63351Z" fill="url(#paint1_linear_0_1)"/>
<path d="M70.042 33.6599C69.6543 34.4652 68.9987 34.7102 68.1334 34.6926C66.2284 34.6538 64.3215 34.682 62.4164 34.6803C61.3238 34.6785 60.7898 34.1586 60.7546 33.0642C60.7281 32.2165 60.0655 31.5909 59.1138 31.5151C58.9852 31.5045 58.8565 31.5098 58.7279 31.5098C51.5922 31.5098 44.4548 31.5098 37.3192 31.5098C37.076 31.5098 36.8363 31.5186 36.5948 31.5786C35.7489 31.7883 35.2995 32.3364 35.2995 33.2017C35.2995 40.5382 35.3101 47.8748 35.2872 55.2113C35.2837 56.2494 36.0027 56.8679 36.9085 56.9596C37.0213 56.9719 37.1376 56.9666 37.2522 56.9666C44.4319 56.9666 51.6099 56.9666 58.7896 56.9666C59.0187 56.9666 59.2443 56.9578 59.4698 56.8979C60.3228 56.6776 60.7546 56.1401 60.7546 55.2677C60.7546 49.2635 60.7581 43.2593 60.751 37.255C60.751 36.7386 60.8674 36.2875 61.2868 35.9632C61.7274 35.6196 62.2208 35.5403 62.7372 35.7711C63.25 36.0002 63.5232 36.4161 63.5831 36.9695C63.6007 37.1246 63.5901 37.285 63.5901 37.4418C63.5901 42.7447 63.5954 48.0457 63.5796 53.3486C63.5778 53.7398 63.6853 53.8103 64.0501 53.805C65.4106 53.7821 66.7729 53.8262 68.1334 53.7856C69.0005 53.7592 69.6543 54.0147 70.0438 54.8166C70.0438 55.0739 70.0438 55.3329 70.0438 55.5902C69.7072 56.3921 69.0974 56.6706 68.2427 56.6476C66.7535 56.6071 65.2626 56.6406 63.7717 56.6318C63.5249 56.63 63.4069 56.6899 63.3099 56.942C62.8412 58.1527 61.9759 58.9915 60.7669 59.4515C60.4849 59.559 60.418 59.6982 60.4197 59.9784C60.4303 61.3689 60.4338 62.7594 60.4109 64.1481C60.4003 64.8213 59.8857 65.35 59.2108 65.461C58.6151 65.558 57.9613 65.1879 57.7163 64.6081C57.6088 64.3543 57.5841 64.0847 57.5841 63.8097C57.5877 62.592 57.5789 61.3724 57.5912 60.1547C57.5947 59.8886 57.5471 59.7811 57.2475 59.7916C56.6043 59.8163 55.9575 59.8145 55.3125 59.7916C55.0147 59.7811 54.9266 59.8621 54.9301 60.167C54.9477 61.413 54.9442 62.6607 54.9354 63.9084C54.9283 64.7156 54.5829 65.1967 53.9026 65.4011C53.1607 65.6232 52.3465 65.1738 52.165 64.4248C52.1121 64.2045 52.0963 63.9719 52.0945 63.7445C52.0874 62.5409 52.0839 61.3372 52.0963 60.1335C52.098 59.885 52.0557 59.7828 51.7755 59.7916C51.1023 59.8145 50.4291 59.8093 49.7559 59.7934C49.5092 59.7881 49.4457 59.8621 49.4475 60.1053C49.4598 61.3513 49.4581 62.599 49.451 63.8467C49.4457 64.6927 49.1109 65.1879 48.4289 65.3994C47.6147 65.6514 46.7723 65.1262 46.6454 64.2803C46.6154 64.0829 46.6066 63.8802 46.6066 63.6811C46.6031 62.4915 46.5996 61.3019 46.6101 60.1124C46.6119 59.878 46.5626 59.7881 46.3088 59.7952C45.6356 59.8128 44.9606 59.8163 44.2892 59.7934C44.016 59.7846 43.9596 59.8709 43.9614 60.13C43.9755 61.376 43.9719 62.6237 43.9649 63.8714C43.9614 64.6645 43.6036 65.1914 42.9568 65.3976C42.1056 65.6672 41.198 65.1086 41.1557 64.2151C41.1011 63.0572 41.1258 61.8941 41.1205 60.7345C41.117 59.8022 41.1205 59.8022 40.19 59.8022C39.7177 59.8022 39.2436 59.8163 38.7713 59.7969C38.5211 59.7864 38.4647 59.8727 38.4682 60.1106C38.4788 61.3865 38.4823 62.6625 38.47 63.9366C38.4594 65.0328 37.5271 65.7307 36.5631 65.3835C36.0097 65.1844 35.6485 64.6979 35.6414 64.067C35.6273 62.7206 35.6256 61.3724 35.6397 60.026C35.6432 59.7159 35.5762 59.5625 35.2555 59.4392C34.0677 58.9774 33.2112 58.1439 32.7494 56.9455C32.6525 56.6952 32.5397 56.63 32.2895 56.6318C30.6417 56.6388 28.9939 56.6424 27.3444 56.623C26.7152 56.6159 26.2006 56.1701 26.0438 55.5673C25.8958 54.9981 26.1478 54.3742 26.6624 54.0376C26.962 53.8403 27.2968 53.7944 27.6457 53.7944C29.1367 53.7962 30.6276 53.7874 32.1168 53.8015C32.3917 53.8033 32.4728 53.7398 32.4728 53.4525C32.4639 47.3038 32.4639 41.155 32.4745 35.0063C32.4745 34.6891 32.3494 34.6732 32.1009 34.675C30.5818 34.6838 29.0627 34.6891 27.5435 34.6767C26.4297 34.6679 25.716 33.6986 26.109 32.7364C26.3487 32.1513 26.8016 31.8447 27.4448 31.8447C29.0503 31.8429 30.6558 31.8376 32.2613 31.8482C32.5239 31.85 32.649 31.79 32.753 31.5204C33.2165 30.3238 34.0782 29.499 35.2643 29.032C35.5551 28.9174 35.6414 28.7835 35.6379 28.4822C35.6238 27.1058 35.6238 25.7312 35.6449 24.3548C35.6538 23.6851 36.1155 23.1758 36.7781 23.0278C37.3438 22.9009 38.0065 23.2198 38.2937 23.7644C38.4365 24.0358 38.4735 24.3319 38.4735 24.6385C38.47 25.8563 38.4858 27.0758 38.4629 28.2936C38.4559 28.6284 38.5581 28.6972 38.8682 28.6831C39.4692 28.6584 40.0737 28.6549 40.6729 28.6831C41.02 28.7007 41.1364 28.6179 41.1275 28.2478C41.1011 27.03 41.1117 25.8122 41.1205 24.5927C41.1258 23.7767 41.4624 23.2868 42.1268 23.0771C42.9057 22.8321 43.7358 23.3062 43.9014 24.1045C43.9455 24.3125 43.9614 24.531 43.9631 24.7443C43.9684 25.9338 43.9772 27.1234 43.9578 28.313C43.9525 28.6249 44.046 28.6936 44.3403 28.6831C44.9694 28.6601 45.6021 28.6601 46.2312 28.6831C46.5255 28.6936 46.6172 28.6214 46.6119 28.313C46.5925 27.0811 46.5978 25.8475 46.6066 24.6156C46.6119 23.7767 46.9538 23.2833 47.6429 23.0753C48.4394 22.8339 49.2765 23.3503 49.4087 24.1697C49.4404 24.3671 49.4528 24.568 49.4528 24.7689C49.4563 25.9444 49.4704 27.1199 49.4457 28.2953C49.4387 28.6337 49.5444 28.6972 49.8528 28.6848C50.482 28.6601 51.1146 28.6637 51.7438 28.6848C52.0187 28.6936 52.1051 28.6214 52.1015 28.3341C52.0857 27.0882 52.0892 25.8404 52.0963 24.5927C52.1015 23.8014 52.4593 23.2833 53.1166 23.0789C53.9678 22.8145 54.8737 23.3855 54.9072 24.2755C54.9547 25.5778 54.9442 26.8837 54.9283 28.1861C54.9248 28.5562 54.9882 28.7165 55.4059 28.6866C55.9769 28.6443 56.5532 28.6549 57.1242 28.6848C57.4819 28.7042 57.6106 28.6337 57.6 28.2319C57.5683 26.9859 57.5824 25.7382 57.5912 24.4922C57.5965 23.9036 57.8485 23.4437 58.3842 23.167C58.8918 22.9044 59.3835 22.9608 59.8399 23.2798C60.2594 23.5723 60.4303 23.9953 60.4285 24.5011C60.4232 25.8334 60.4356 27.1675 60.4215 28.4998C60.418 28.7835 60.4885 28.9174 60.7704 29.0249C61.9776 29.4884 62.8464 30.3238 63.3117 31.5363C63.4086 31.7883 63.5249 31.8482 63.7734 31.8464C65.2644 31.8359 66.7553 31.8729 68.2445 31.8288C69.1009 31.8041 69.7072 32.0843 70.0455 32.8844C70.042 33.1435 70.042 33.4008 70.042 33.6599Z" fill="url(#paint2_linear_0_1)"/>
<path d="M70.042 44.6674C69.6332 45.4833 68.9423 45.7177 68.077 45.6702C67.3774 45.6314 66.6724 45.6878 65.971 45.6543C64.7427 45.5979 64.0801 44.4136 64.7233 43.4479C65.0176 43.0055 65.4564 42.8205 65.971 42.8152C66.8311 42.8064 67.6893 42.8187 68.5493 42.8099C69.2789 42.8029 69.7054 43.2311 70.0402 43.8056C70.042 44.0946 70.042 44.3801 70.042 44.6674Z" fill="url(#paint3_linear_0_1)"/>
<path d="M70.042 39.1636C69.6385 39.9849 68.9511 40.2281 68.0823 40.1823C67.3827 40.1453 66.6777 40.1911 65.9763 40.1699C65.1516 40.1453 64.6035 39.6589 64.4925 38.8975C64.4026 38.2807 64.8044 37.6463 65.423 37.4172C65.6574 37.3308 65.9006 37.3308 66.142 37.3291C66.8434 37.3255 67.5483 37.3573 68.248 37.3203C69.1027 37.2762 69.7125 37.5846 70.042 38.3917C70.042 38.6473 70.042 38.9046 70.042 39.1636Z" fill="url(#paint4_linear_0_1)"/>
<path d="M70.042 50.0849C69.7125 50.892 69.1027 51.1987 68.248 51.1564C67.4197 51.1158 66.5861 51.1599 65.756 51.1194C65.067 51.0841 64.5876 50.5783 64.4907 49.8769C64.4096 49.2918 64.7727 48.6785 65.3489 48.4336C65.5904 48.3314 65.8442 48.3014 66.1032 48.3014C66.7623 48.3014 67.4232 48.3314 68.0806 48.2943C68.9494 48.245 69.6367 48.4917 70.0403 49.313C70.042 49.5685 70.042 49.8276 70.042 50.0849Z" fill="url(#paint5_linear_0_1)"/>
<path d="M28.6379 45.6597C28.2643 45.6385 27.7339 45.7055 27.2069 45.6244C26.5002 45.5151 26.0085 44.9441 26.0103 44.2322C26.0121 43.522 26.502 42.921 27.2175 42.8576C28.2714 42.7642 29.3323 42.7606 30.3862 42.8611C31.0664 42.9245 31.5652 43.5378 31.5775 44.2198C31.5898 44.9089 31.0735 45.5134 30.3774 45.6209C30.2928 45.6332 30.2082 45.6544 30.1218 45.6561C29.6795 45.6614 29.2354 45.6597 28.6379 45.6597Z" fill="url(#paint6_linear_0_1)"/>
<path d="M28.7895 37.3466C29.29 37.3466 29.7923 37.3184 30.2892 37.3537C31.0188 37.4048 31.5546 37.9952 31.5775 38.7142C31.5986 39.3804 31.1122 40.0307 30.4302 40.11C29.3358 40.2369 28.2308 40.2386 27.1382 40.1082C26.4368 40.0254 25.9856 39.3839 26.0138 38.6631C26.0385 37.9881 26.5637 37.4295 27.2475 37.3484C27.318 37.3396 27.3902 37.3255 27.4607 37.3255C27.9048 37.3237 28.3472 37.3237 28.7913 37.3237C28.7895 37.3343 28.7895 37.3396 28.7895 37.3466Z" fill="url(#paint7_linear_0_1)"/>
<path d="M28.7736 51.1264C28.2731 51.1264 27.7709 51.1546 27.2739 51.1193C26.5795 51.07 26.0491 50.506 26.0138 49.8363C25.9751 49.0979 26.4315 48.4441 27.1541 48.363C28.2467 48.2379 29.3534 48.2344 30.4461 48.3666C31.1228 48.4476 31.6092 49.1155 31.5775 49.7764C31.544 50.4831 31.0224 51.0664 30.3174 51.1176C29.8064 51.1546 29.2882 51.1246 28.7736 51.1246V51.1264Z" fill="url(#paint8_linear_0_1)"/>
<path d="M43.4256 48.8265C42.696 48.8265 41.9646 48.8406 41.235 48.8195C40.9548 48.8107 40.8315 48.9111 40.7434 49.1649C40.5777 49.6495 40.3838 50.1254 40.1917 50.5994C39.8499 51.4471 39.0727 51.8225 38.3025 51.5211C37.543 51.2233 37.2187 50.4038 37.55 49.5526C39.0621 45.6649 40.5812 41.779 42.1021 37.8931C42.3629 37.2251 42.8828 36.8268 43.4802 36.8568C44.164 36.8903 44.6046 37.2639 44.8531 37.9019C46.3652 41.7896 47.8878 45.6737 49.3999 49.5632C49.7647 50.5007 49.347 51.3449 48.4341 51.5793C47.8755 51.7238 47.2375 51.4577 46.9309 50.9272C46.6225 50.395 46.4392 49.8046 46.2365 49.2283C46.1184 48.8953 45.9528 48.8036 45.6162 48.8159C44.8866 48.8441 44.1552 48.8265 43.4256 48.8265ZM43.475 42.1843C42.9604 43.5061 42.4863 44.7238 42.0052 45.9592C43.0079 45.9592 43.9596 45.9592 44.95 45.9592C44.4636 44.7168 43.9913 43.5061 43.475 42.1843Z" fill="url(#paint9_linear_0_1)"/>
<path d="M52.5985 44.1933C52.5985 42.8892 52.5985 41.5868 52.5985 40.2827C52.5985 39.6976 52.5985 39.6976 52.0328 39.68C51.3931 39.6606 50.8591 39.257 50.697 38.6684C50.5243 38.0463 50.7727 37.4048 51.3173 37.07C51.5676 36.9167 51.839 36.8479 52.1333 36.8479C53.3933 36.8497 54.6552 36.8427 55.9152 36.8515C56.7964 36.8585 57.4061 37.4542 57.4044 38.2807C57.4026 39.1072 56.7946 39.6923 55.9011 39.6712C55.531 39.6624 55.4271 39.747 55.4288 40.1347C55.4482 42.8698 55.4447 45.6067 55.4323 48.3436C55.4306 48.6784 55.4782 48.8141 55.8623 48.8036C56.7929 48.7789 57.4044 49.3569 57.4044 50.1976C57.4061 51.0364 56.784 51.6198 55.8694 51.625C54.6375 51.6303 53.4057 51.6321 52.1738 51.625C51.2838 51.6198 50.6159 50.9906 50.6318 50.1852C50.6459 49.3763 51.2785 48.7824 52.1667 48.8036C52.5245 48.8124 52.6161 48.7225 52.6091 48.3612C52.5844 46.9725 52.5985 45.582 52.5985 44.1933Z" fill="url(#paint10_linear_0_1)"/>
<defs>
<linearGradient id="paint0_linear_0_1" x1="95.3661" y1="87" x2="-16.8311" y2="45.4627" gradientUnits="userSpaceOnUse">
<stop stop-color="#52FCA9"/>
<stop offset="1" stop-color="#5D0EC1"/>
</linearGradient>
<linearGradient id="paint1_linear_0_1" x1="95.3661" y1="86.9998" x2="-16.8307" y2="45.462" gradientUnits="userSpaceOnUse">
<stop stop-color="#52FCA9"/>
<stop offset="1" stop-color="#5D0EC1"/>
</linearGradient>
<linearGradient id="paint2_linear_0_1" x1="70.0455" y1="65.4764" x2="17.5613" y2="47.0956" gradientUnits="userSpaceOnUse">
<stop stop-color="#52FCA9"/>
<stop offset="1" stop-color="#5D0EC1"/>
</linearGradient>
<linearGradient id="paint3_linear_0_1" x1="70.042" y1="45.676" x2="64.8347" y2="42.259" gradientUnits="userSpaceOnUse">
<stop stop-color="#52FCA9"/>
<stop offset="1" stop-color="#5D0EC1"/>
</linearGradient>
<linearGradient id="paint4_linear_0_1" x1="70.042" y1="40.1876" x2="64.8315" y2="36.7788" gradientUnits="userSpaceOnUse">
<stop stop-color="#52FCA9"/>
<stop offset="1" stop-color="#5D0EC1"/>
</linearGradient>
<linearGradient id="paint5_linear_0_1" x1="70.042" y1="51.1602" x2="64.8309" y2="47.7511" gradientUnits="userSpaceOnUse">
<stop stop-color="#52FCA9"/>
<stop offset="1" stop-color="#5D0EC1"/>
</linearGradient>
<linearGradient id="paint6_linear_0_1" x1="31.5777" y1="45.6657" x2="26.3568" y2="42.256" gradientUnits="userSpaceOnUse">
<stop stop-color="#52FCA9"/>
<stop offset="1" stop-color="#5D0EC1"/>
</linearGradient>
<linearGradient id="paint7_linear_0_1" x1="31.5782" y1="40.2056" x2="26.355" y2="36.7987" gradientUnits="userSpaceOnUse">
<stop stop-color="#52FCA9"/>
<stop offset="1" stop-color="#5D0EC1"/>
</linearGradient>
<linearGradient id="paint8_linear_0_1" x1="31.579" y1="51.137" x2="26.3694" y2="47.7224" gradientUnits="userSpaceOnUse">
<stop stop-color="#52FCA9"/>
<stop offset="1" stop-color="#5D0EC1"/>
</linearGradient>
<linearGradient id="paint9_linear_0_1" x1="49.5314" y1="51.6241" x2="34.4845" y2="47.4569" gradientUnits="userSpaceOnUse">
<stop stop-color="#52FCA9"/>
<stop offset="1" stop-color="#5D0EC1"/>
</linearGradient>
<linearGradient id="paint10_linear_0_1" x1="57.4044" y1="51.6297" x2="48.5559" y2="50.2605" gradientUnits="userSpaceOnUse">
<stop stop-color="#52FCA9"/>
<stop offset="1" stop-color="#5D0EC1"/>
</linearGradient>
</defs>
</svg>
