<svg width="96" height="88" viewBox="0 0 96 88" fill="none" xmlns="http://www.w3.org/2000/svg">
<path d="M34.1047 27.331C35.764 27.3136 37.2719 27.47 38.7625 27.7805C39.193 27.8717 39.3921 27.7762 39.5478 27.3332C40.4067 24.8595 41.5339 22.5271 43.2603 20.5269C44.1105 19.5409 45.0862 18.7113 46.2912 18.2075C48.5585 17.2606 50.6267 17.7275 52.5002 19.2174C54.324 20.6659 55.5052 22.6031 56.4982 24.6706C56.9114 25.5284 57.3117 26.3971 57.5691 27.3114C57.7119 27.8153 57.9737 27.8652 58.3955 27.774C60.3231 27.3614 62.2789 27.2419 64.2389 27.3592C65.9091 27.4591 67.5338 27.7957 68.9963 28.6775C71.3847 30.1173 72.1635 32.3629 71.8412 34.9321C71.8369 34.969 71.8217 35.0037 71.8131 35.0385C71.6227 35.7204 71.6551 36.2742 72.1484 36.9257C73.0202 38.0789 72.9835 39.4167 72.1938 40.6372C71.4085 41.8512 70.2554 42.3877 68.8059 42.1661C68.5485 42.1271 68.4035 42.1879 68.2521 42.3877C67.9449 42.7981 67.6333 43.2129 67.2785 43.58C67.0189 43.8493 67.0882 44.0078 67.298 44.2532C68.8146 46.0319 70.1472 47.9321 71.0602 50.1039C71.7308 51.7044 72.1289 53.3593 71.8239 55.0924C71.3933 57.5464 69.8032 58.995 67.5511 59.8072C65.4353 60.5695 63.2459 60.5717 61.0436 60.4088C60.0765 60.3371 59.116 60.2003 58.1662 60.0092C57.872 59.9506 57.7206 60.0092 57.6643 60.3132C57.6383 60.4544 57.5778 60.5956 57.5085 60.7237C57.0845 61.5207 57.0218 62.1809 57.6621 63.0149C58.4907 64.0921 58.2701 65.6818 57.4371 66.7676C56.5912 67.8665 55.1829 68.3704 53.8675 67.9795C53.4565 67.8579 53.2141 67.9599 52.9134 68.2271C51.6197 69.3824 50.1529 70.1404 48.3594 70.0796C46.9078 70.0296 45.6703 69.4432 44.5648 68.5485C42.7865 67.1064 41.6226 65.204 40.6425 63.1734C40.212 62.283 39.8118 61.3774 39.5284 60.4305C39.4051 60.0179 39.1995 59.9527 38.8188 60.0309C36.8544 60.437 34.8662 60.5804 32.8672 60.4631C31.2857 60.3697 29.7562 60.0418 28.35 59.2643C25.9508 57.9373 24.7977 55.455 25.2909 52.7556C25.7993 49.9692 27.2012 47.6324 28.8779 45.4259C29.2002 45.0024 29.5334 44.5876 29.8882 44.1902C30.0677 43.9904 30.1197 43.8493 29.899 43.6495C29.7367 43.5039 29.5918 43.328 29.475 43.1434C29.0315 42.4485 28.5447 42.1205 27.5928 42.1879C26.1433 42.2899 25.04 41.4647 24.4883 40.0878C23.9496 38.7435 24.1876 37.486 25.1892 36.4241C25.4337 36.1656 25.5029 35.9506 25.4229 35.6075C24.551 31.8547 26.4765 28.7404 30.2192 27.7979C31.541 27.4613 32.8759 27.2919 34.1047 27.331ZM58.5924 43.9339C58.6162 42.1292 58.5297 40.331 58.3674 38.535C58.3458 38.2983 58.2441 38.1745 58.0732 38.055C55.1677 36.0027 52.113 34.2132 48.883 32.7256C48.6645 32.6257 48.4914 32.6127 48.2664 32.7169C45.0213 34.2132 41.9471 36.0093 39.0286 38.0746C38.875 38.1832 38.7755 38.2983 38.7625 38.5155C38.7063 39.597 38.5873 40.6785 38.5592 41.7622C38.4943 44.2445 38.5051 46.7268 38.756 49.2026C38.782 49.4675 38.8642 49.6304 39.0762 49.7825C41.9665 51.8239 45.0105 53.596 48.2188 55.0858C48.4546 55.1944 48.6428 55.2096 48.8873 55.0967C52.1151 53.6047 55.172 51.8174 58.0775 49.7651C58.2506 49.6435 58.3458 49.5153 58.3674 49.2808C58.5275 47.4978 58.6184 45.7191 58.5924 43.9339ZM34.2669 58.9342C35.5996 58.9146 36.9755 58.7474 38.3536 58.5346C38.8491 58.4586 38.8253 58.3 38.7193 57.9156C38.0702 55.5636 37.6008 53.1747 37.352 50.7467C37.3282 50.5208 37.246 50.3797 37.0707 50.2515C35.0566 48.7726 33.1787 47.1351 31.4437 45.3347C31.249 45.1328 31.1343 45.085 30.9461 45.3456C30.6108 45.8038 30.2278 46.2273 29.8903 46.6834C28.5793 48.462 27.4478 50.3319 26.9416 52.521C26.3077 55.2639 27.3764 57.2836 30.0093 58.2805C31.3593 58.7952 32.7742 58.9233 34.2669 58.9342ZM62.8522 58.932C64.2324 58.9515 65.5932 58.8082 66.9043 58.3652C68.7021 57.7593 70.0131 56.6734 70.3051 54.6689C70.4371 53.7654 70.2987 52.8772 70.0499 52.0063C69.3338 49.5001 67.8735 47.4283 66.2639 45.439C66.0194 45.1393 65.8961 45.1045 65.6149 45.3977C64.2454 46.8354 62.8046 48.2036 61.1928 49.3568C60.2258 50.0496 59.5227 50.7771 59.6287 52.0432C59.6308 52.0606 59.62 52.078 59.6179 52.0975C59.3193 54.1086 58.9299 56.1022 58.3652 58.0568C58.2895 58.3217 58.3003 58.4499 58.653 58.5107C60.0462 58.7474 61.4416 58.9103 62.8522 58.932ZM56.2451 28.2018C55.7151 26.6664 55.0942 25.2048 54.2872 23.8258C53.398 22.3077 52.3683 20.907 50.8344 19.9796C49.9366 19.4367 48.976 19.1652 47.903 19.3629C46.5941 19.6039 45.5924 20.3401 44.7141 21.274C42.8579 23.2481 41.7891 25.6696 40.8783 28.1997C42.8946 28.7274 44.9023 29.2465 46.7585 30.1369C48.0349 30.7493 49.1145 30.7341 50.3844 30.1304C52.2428 29.2486 54.2483 28.7252 56.2451 28.2018ZM48.5239 68.5289C49.7959 68.4855 50.8344 67.9599 51.7733 67.1759C52.0437 66.9501 52.0351 66.8111 51.8534 66.5201C51.1416 65.3864 51.0918 64.1963 51.7387 63.0236C52.3747 61.8747 53.3851 61.3057 54.6961 61.2341C55.0098 61.2167 55.3711 61.4968 55.6069 61.2254C55.8103 60.9908 55.8708 60.6303 55.992 60.3241C56.0396 60.2046 56.0742 60.0808 56.1326 59.9657C56.2667 59.6986 56.1845 59.5662 55.8989 59.4967C53.4846 58.9038 51.1481 58.0807 48.8722 57.086C48.6775 57.0013 48.5022 56.9753 48.2989 57.0665C45.9948 58.0915 43.6129 58.8929 41.1747 59.5292C40.9843 59.5792 40.8697 59.6161 40.9649 59.8702C41.8605 62.2917 42.9163 64.622 44.7076 66.5331C45.7525 67.6494 46.964 68.4616 48.5239 68.5289ZM34.2583 28.8859C33.1549 28.8621 32.0667 28.988 30.9915 29.2247C27.8762 29.911 26.4224 31.9394 26.8659 34.9212C26.9265 35.3295 27.0454 35.4142 27.45 35.3881C28.7632 35.3056 29.8103 35.8464 30.5134 36.954C31.2187 38.0616 31.2273 39.2213 30.6562 40.4114C30.4896 40.761 29.9704 40.9891 30.111 41.3887C30.2408 41.7644 30.6324 42.0402 30.8682 42.3877C31.1019 42.7351 31.2555 42.6765 31.5172 42.4029C33.1722 40.6785 34.97 39.1127 36.8933 37.6989C37.1984 37.473 37.3455 37.2406 37.3671 36.8497C37.4017 36.2286 37.5186 35.6118 37.6181 34.9972C37.8993 33.2251 38.2671 31.4681 38.7625 29.7416C38.8274 29.5179 38.8577 29.3681 38.5094 29.3094C37.1032 29.0727 35.6883 28.9033 34.2583 28.8859ZM70.3441 33.9005C70.3419 33.9005 70.3398 33.9005 70.3376 33.9005C70.3376 33.7159 70.3398 33.5335 70.3354 33.3489C70.3333 33.275 70.316 33.2034 70.3051 33.1317C69.9915 31.1294 68.6891 30.0305 66.8805 29.4484C64.2238 28.5928 61.5325 28.8425 58.839 29.2682C58.3588 29.3442 58.283 29.4636 58.415 29.9414C59.0619 32.276 59.527 34.6497 59.7715 37.0626C59.7996 37.3449 59.9445 37.4774 60.1414 37.6229C61.8938 38.9303 63.5531 40.3462 65.1043 41.8903C65.9826 42.7634 65.9718 42.7504 66.7745 41.7579C67.0016 41.4755 67.0038 41.3322 66.7615 41.0499C65.8355 39.9814 65.6451 38.7413 66.1882 37.4535C66.7333 36.1613 67.761 35.4815 69.1715 35.3686C69.5112 35.3425 69.9633 35.6422 70.1689 35.2535C70.3376 34.9342 70.2943 34.5021 70.3419 34.122C70.3527 34.0482 70.3441 33.9743 70.3441 33.9005ZM46.6222 31.7461C44.6578 30.9426 42.7713 30.3345 40.8524 29.822C40.4716 29.7199 40.3613 29.8024 40.2618 30.1781C39.9546 31.327 39.6712 32.4802 39.4505 33.6464C39.3012 34.4369 39.1108 35.2253 39.0978 36.1135C41.5209 34.4695 43.9764 33.0535 46.6222 31.7461ZM60.0116 48.3035C61.7337 46.9766 63.2611 45.5823 64.7149 44.1033C64.9593 43.8536 64.7452 43.7602 64.6175 43.6277C63.5488 42.5136 62.4087 41.4734 61.2296 40.4809C60.8575 40.1681 60.4681 39.875 60.0181 39.5188C60.2388 42.4811 60.2431 45.3434 60.0116 48.3035ZM37.1162 48.297C36.8782 45.326 36.8933 42.4724 37.1075 39.5557C36.9928 39.623 36.9301 39.6534 36.8782 39.6947C35.565 40.7241 34.3102 41.823 33.129 43.0044C32.2268 43.9057 32.2247 43.9144 33.1203 44.8048C34.3513 46.0275 35.6494 47.1785 37.1162 48.297ZM46.6201 56.061C43.9634 54.7709 41.5079 53.3311 39.113 51.7196C39.1022 51.8304 39.0849 51.8825 39.0914 51.9347C39.3402 53.9348 39.7901 55.8916 40.3115 57.8374C40.3721 58.0611 40.5019 58.085 40.6771 58.0394C42.6588 57.5139 44.6124 56.9058 46.6201 56.061ZM50.5164 31.7505C53.1601 33.0513 55.6242 34.476 58.0689 36.1287C57.8028 33.97 57.3506 31.972 56.8184 29.9892C56.76 29.7698 56.6475 29.7286 56.4614 29.7785C54.4733 30.2954 52.5197 30.91 50.5164 31.7505ZM50.5077 56.0653C52.4937 56.8927 54.4192 57.4987 56.3727 58.0177C56.628 58.085 56.7665 58.0611 56.8335 57.7506C56.9742 57.0882 57.184 56.4432 57.3333 55.783C57.6319 54.4626 57.9044 53.1378 58.0602 51.6914C55.6285 53.3332 53.173 54.7601 50.5077 56.0653ZM54.6983 66.5461C55.7064 66.5548 56.5718 65.7165 56.5891 64.7154C56.6064 63.6946 55.7324 62.8086 54.7112 62.8086C53.7182 62.8086 52.8593 63.6707 52.8529 64.6763C52.8485 65.6796 53.6944 66.5374 54.6983 66.5461ZM27.6663 36.9388C26.6236 36.9279 25.8036 37.7163 25.7885 38.7413C25.7734 39.7859 26.5565 40.6199 27.5755 40.6438C28.6312 40.6676 29.4815 39.8511 29.4944 38.8043C29.5031 37.7857 28.6853 36.9496 27.6663 36.9388ZM69.3468 36.9431C68.3105 36.9344 67.4905 37.7271 67.4776 38.7522C67.4624 39.8098 68.278 40.6481 69.3251 40.6459C70.3527 40.6438 71.164 39.8359 71.1748 38.8043C71.1813 37.7857 70.3657 36.9518 69.3468 36.9431Z" fill="url(#paint0_linear_0_1)"/>
<path d="M48.5585 49.9801C45.1922 49.9779 42.5096 47.2719 42.5139 43.8883C42.5182 40.5156 45.2203 37.8248 48.5953 37.8335C51.9485 37.8422 54.616 40.5569 54.6139 43.9535C54.6117 47.2871 51.901 49.9844 48.5585 49.9801ZM44.0542 43.8796C44.0369 46.3402 46.09 48.4273 48.5347 48.4338C50.9945 48.4403 53.0367 46.4162 53.0692 43.9339C53.1038 41.4907 51.0442 39.3972 48.5888 39.382C46.1376 39.3646 44.0737 41.4125 44.0542 43.8796Z" fill="url(#paint1_linear_0_1)"/>
<path d="M51.9702 44.2402C51.8858 45.2522 51.3579 46.1882 50.3455 46.8289C49.9193 47.1004 49.5017 47.0113 49.2421 46.6291C48.9912 46.2599 49.0669 45.8234 49.4887 45.5324C50.0556 45.1415 50.3628 44.6202 50.432 43.9383C50.4882 43.3824 50.7868 43.1022 51.2627 43.1326C51.7236 43.1674 51.9788 43.4975 51.9702 44.2402Z" fill="url(#paint2_linear_0_1)"/>
<path d="M48.2315 87.0015C43.2989 87.0015 38.3425 86.995 33.3905 86.9841C27.0084 86.9689 21.8897 84.0457 18.5884 78.5317C13.2858 69.6688 8.13905 60.6061 3.36872 52.1342C0.171185 46.4572 0.207963 40.4176 3.47472 34.6647C8.05035 26.6053 13.2361 17.471 18.4715 8.64936C21.7924 3.05278 26.9478 0.0688079 33.3796 0.0188579C36.9233 -0.00720306 40.5211 -0.000687831 43.9999 0.0058274C45.5662 0.00799914 47.1325 0.0123426 48.6988 0.0123426H48.701C50.5204 0.0145144 52.3398 0.0145144 54.1593 0.0123426C57.3049 0.0101709 60.4483 0.00799914 63.5918 0.0210296C69.9479 0.0470905 75.0189 2.91162 78.2597 8.3084C83.7007 17.3667 88.8908 26.5206 93.6892 35.0664C96.8024 40.6087 96.7678 46.5137 93.5941 52.145C89.0725 60.1674 83.7959 69.482 78.3852 78.5252C75.086 84.0414 69.9695 86.9646 63.5896 86.9798C58.525 86.995 53.3913 87.0015 48.2315 87.0015ZM39.3117 4.63381C37.3474 4.63381 35.3722 4.63815 33.4164 4.65336C28.618 4.69028 24.9228 6.83161 22.4371 11.0209C17.2254 19.8034 12.0505 28.9182 7.4857 36.958C5.03455 41.2754 5.0021 45.6146 7.38835 49.8538C12.1435 58.2976 17.2708 67.3277 22.5474 76.1449C25.0051 80.2517 28.6569 82.3388 33.4034 82.3496C43.5282 82.3735 53.6812 82.3735 63.5788 82.3475C68.3232 82.3366 71.975 80.2474 74.4305 76.1406C79.8109 67.1431 85.0723 57.8589 89.5788 49.8625C91.9477 45.6602 91.978 41.447 89.6696 37.3403C84.8885 28.827 79.7179 19.7057 74.3093 10.6995C71.9123 6.70565 68.2994 4.6729 63.5745 4.65336C60.4375 4.64033 57.3006 4.6425 54.1614 4.64467C52.3398 4.64684 50.5182 4.64684 48.6966 4.64467C47.1282 4.64467 45.5597 4.6425 43.9912 4.63815C42.4509 4.63598 40.8845 4.63381 39.3117 4.63381Z" fill="url(#paint3_linear_0_1)"/>
<path d="M48.2315 87.0015C43.2989 87.0015 38.3425 86.995 33.3905 86.9841C27.0084 86.9689 21.8897 84.0458 18.5884 78.5317C13.2858 69.6688 8.13905 60.6062 3.36872 52.1342C0.171185 46.4572 0.207963 40.4176 3.47472 34.6647C8.05035 26.6054 13.2361 17.471 18.4715 8.64938C21.7924 3.0528 26.9478 0.0688299 33.3796 0.0188799C37.0142 -0.00718105 40.7028 0.00150592 44.2681 0.00802115C45.7457 0.0123646 47.2234 0.0145364 48.701 0.0145364C50.3776 0.0145364 52.0564 0.0145364 53.7331 0.0123646C57.0193 0.00802115 60.3055 0.00802115 63.5918 0.0210516C69.9479 0.0471125 75.0189 2.91164 78.2597 8.30842C83.7007 17.3668 88.8908 26.5207 93.6892 35.0665C96.8024 40.6087 96.7678 46.5137 93.5941 52.145C89.0725 60.1675 83.7959 69.4821 78.3852 78.5252C75.086 84.0414 69.9695 86.9646 63.5896 86.9798C58.525 86.995 53.3913 87.0015 48.2315 87.0015ZM39.2209 4.63383C37.2846 4.63383 35.3419 4.63818 33.4143 4.65338C28.6158 4.6903 24.9207 6.83164 22.4349 11.0209C17.2232 19.8035 12.0483 28.9183 7.48354 36.958C5.03238 41.2755 4.99993 45.6146 7.38618 49.8539C12.1414 58.2976 17.2687 67.3277 22.5452 76.145C25.0029 80.2517 28.6547 82.3388 33.4013 82.3496C43.5261 82.3735 53.679 82.3735 63.5766 82.3475C68.321 82.3366 71.9729 80.2474 74.4283 76.1406C79.8088 67.1431 85.0702 57.8589 89.5766 49.8625C91.9455 45.6602 91.9758 41.447 89.6674 37.3403C84.8863 28.827 79.7157 19.7057 74.3072 10.6995C71.9101 6.70567 68.2972 4.67292 63.5723 4.65338C60.2926 4.64035 57.015 4.64252 53.7352 4.64469C52.0564 4.64469 50.3755 4.64686 48.6966 4.64686C47.2169 4.64686 45.7371 4.64252 44.2551 4.64035C42.6001 4.63818 40.9148 4.63383 39.2209 4.63383Z" fill="url(#paint4_linear_0_1)"/>
<defs>
<linearGradient id="paint0_linear_0_1" x1="72.7942" y1="70.083" x2="13.6095" y2="51.5369" gradientUnits="userSpaceOnUse">
<stop stop-color="#52FCA9"/>
<stop offset="1" stop-color="#5D0EC1"/>
</linearGradient>
<linearGradient id="paint1_linear_0_1" x1="54.6139" y1="49.9801" x2="40.0732" y2="45.0879" gradientUnits="userSpaceOnUse">
<stop stop-color="#52FCA9"/>
<stop offset="1" stop-color="#5D0EC1"/>
</linearGradient>
<linearGradient id="paint2_linear_0_1" x1="51.9704" y1="46.986" x2="48.3573" y2="46.0771" gradientUnits="userSpaceOnUse">
<stop stop-color="#52FCA9"/>
<stop offset="1" stop-color="#5D0EC1"/>
</linearGradient>
<linearGradient id="paint3_linear_0_1" x1="95.9995" y1="87.0015" x2="-15.8727" y2="45.7432" gradientUnits="userSpaceOnUse">
<stop stop-color="#52FCA9"/>
<stop offset="1" stop-color="#5D0EC1"/>
</linearGradient>
<linearGradient id="paint4_linear_0_1" x1="95.9995" y1="87.0015" x2="-15.8723" y2="45.7428" gradientUnits="userSpaceOnUse">
<stop stop-color="#52FCA9"/>
<stop offset="1" stop-color="#5D0EC1"/>
</linearGradient>
</defs>
</svg>
