<svg width="95" height="87" viewBox="0 0 95 87" fill="none" xmlns="http://www.w3.org/2000/svg">
<path d="M47.2331 86.5821C42.3006 86.5821 37.3444 86.5756 32.3924 86.5648C26.0105 86.5496 20.8919 83.6406 17.5906 78.1531C12.2882 69.333 7.14157 60.314 2.37135 51.8829C-0.826111 46.2334 -0.789334 40.2229 2.47735 34.4977C7.05288 26.4773 12.2385 17.387 17.4738 8.60791C20.7946 3.03833 25.9499 0.0687479 32.3816 0.0190388C36.0161 -0.00689638 39.7046 0.00174869 43.2698 0.00823248C44.7474 0.012555 46.225 0.0147163 47.7026 0.0147163C49.3792 0.0147163 51.058 0.0147163 52.7346 0.012555C56.0207 0.00823248 59.3069 0.00823248 62.593 0.0212001C68.949 0.0471353 74.0199 2.89784 77.2607 8.26859C82.7015 17.2832 87.8915 26.393 92.6898 34.8975C95.8029 40.4131 95.7683 46.2896 92.5946 51.8937C88.0732 59.8775 82.7967 69.1471 77.3861 78.1466C74.087 83.6363 68.9706 86.5453 62.5909 86.5604C57.5264 86.5756 52.3928 86.5821 47.2331 86.5821ZM38.2227 4.61173C36.2865 4.61173 34.3438 4.61605 32.4162 4.63118C27.6179 4.66792 23.9228 6.79893 21.4371 10.968C16.2256 19.7082 11.0508 28.779 6.48607 36.78C4.03498 41.0766 4.00253 45.3948 6.38872 49.6136C11.1438 58.0166 16.271 67.0031 21.5474 75.7779C24.005 79.8648 27.6568 81.9418 32.4032 81.9526C42.5278 81.9764 52.6805 81.9764 62.5779 81.9505C67.3222 81.9397 70.9739 79.8605 73.4293 75.7736C78.8096 66.8194 84.071 57.58 88.5772 49.6222C90.9461 45.4402 90.9764 41.2473 88.6681 37.1604C83.8871 28.6882 78.7166 19.6109 73.3082 10.6481C70.9112 6.67358 67.2984 4.65063 62.5736 4.63118C59.2939 4.61821 56.0164 4.62037 52.7367 4.62253C51.058 4.62253 49.377 4.6247 47.6982 4.6247C46.2185 4.6247 44.7388 4.62037 43.2568 4.61821C41.6019 4.61605 39.9166 4.61173 38.2227 4.61173Z" fill="url(#paint0_linear_0_1)"/>
<path d="M26.5623 60.2189C26.5623 48.8765 26.5623 37.5342 26.5623 26.1919C26.6575 25.9671 26.7311 25.7294 26.85 25.5176C27.4255 24.4759 28.3363 24.0522 29.5023 24.0522C41.7838 24.0566 54.0652 24.0544 66.3467 24.0566C66.5414 24.0566 66.7361 24.0739 66.9286 24.0955C68.3023 24.2468 69.3018 25.3555 69.3018 26.7452C69.304 37.7093 69.304 48.6712 69.3018 59.6353C69.3018 61.1093 68.1401 62.2958 66.6712 62.2958C54.1799 62.3002 41.6908 62.3002 29.1995 62.2958C28.0918 62.2958 27.127 61.6064 26.7224 60.5755C26.677 60.4588 26.7008 60.301 26.5623 60.2189ZM47.8607 60.1994C53.9527 60.1994 60.0448 60.1994 66.1368 60.1994C66.2472 60.1994 66.3596 60.2037 66.47 60.1973C66.9459 60.1692 67.1449 59.966 67.1449 59.4948C67.1471 50.1992 67.145 40.9036 67.1514 31.6059C67.1514 31.3357 67.0844 31.2622 66.8096 31.2622C60.3844 31.2709 53.9571 31.2687 47.5318 31.2644C47.2766 31.2644 47.084 31.34 46.898 31.5108C46.3269 32.0381 45.7254 32.5352 45.1651 33.0755C44.4858 33.7304 43.6919 34.007 42.753 34.0049C38.2467 33.9897 33.7404 34.0027 29.2341 33.9897C28.8403 33.9876 28.7062 34.0481 28.7062 34.4912C28.7235 42.7731 28.7192 51.0551 28.7192 59.3371C28.7192 60.0914 28.8252 60.1973 29.5824 60.1973C35.6766 60.1994 41.7686 60.1994 47.8607 60.1994ZM48.0186 26.1854C41.9114 26.1854 35.8042 26.1854 29.697 26.1854C29.5867 26.1854 29.4742 26.1789 29.3639 26.1876C28.8793 26.22 28.7257 26.3799 28.7235 26.8641C28.7214 28.3921 28.73 29.9222 28.717 31.4503C28.7149 31.7226 28.7884 31.7917 29.061 31.7917C33.7079 31.7831 38.3548 31.7831 43.0018 31.7896C43.2592 31.7896 43.4496 31.7053 43.6335 31.5367C44.1873 31.0288 44.7692 30.5512 45.3036 30.0281C46.011 29.3365 46.8396 29.0426 47.8239 29.0448C54.0847 29.0577 60.3455 29.0513 66.6063 29.0513C66.7036 29.0513 66.8031 29.0404 66.8983 29.0534C67.1017 29.0772 67.1579 28.9951 67.1558 28.7962C67.1449 28.1846 67.1514 27.5729 67.1514 26.9613C67.1514 26.287 67.0519 26.1854 66.3856 26.1854C60.2611 26.1854 54.1388 26.1854 48.0186 26.1854Z" fill="url(#paint1_linear_0_1)"/>
<path d="M36.5636 49.5229C36.5636 48.5222 36.5506 47.5215 36.5722 46.5209C36.5787 46.2269 36.477 46.1124 36.2109 46.0324C35.629 45.8573 35.0557 45.6499 34.4802 45.4532C33.8788 45.2479 33.5046 44.7637 33.5024 44.1953C33.5002 43.6226 33.855 43.1406 34.4673 42.9332C38.7897 41.4613 43.1121 39.996 47.4345 38.5263C47.7763 38.4096 48.1051 38.4075 48.4491 38.5263C52.7737 40.0154 57.1004 41.4981 61.4271 42.985C61.9896 43.1774 62.3033 43.6053 62.3141 44.1629C62.3249 44.7465 62.0286 45.2003 61.4618 45.41C60.8798 45.6261 60.2957 45.8465 59.6965 46.0086C59.3438 46.1037 59.2724 46.2766 59.2746 46.6116C59.2897 48.4746 59.2681 50.3355 59.2897 52.1985C59.2984 53.0198 58.9544 53.612 58.2816 54.0334C57.3211 54.6342 56.2329 54.8612 55.1382 55.0406C51.7785 55.5895 48.3907 55.73 44.9985 55.5268C42.9087 55.4015 40.8146 55.2589 38.7918 54.6342C38.2856 54.4765 37.8032 54.269 37.377 53.9534C36.8426 53.5579 36.5484 53.0457 36.5636 52.3563C36.5787 51.4118 36.5636 50.4673 36.5636 49.5229ZM57.1177 46.9509C56.9771 46.9272 56.8776 46.979 56.7737 47.0136C54.1063 47.9235 51.4345 48.8204 48.7714 49.7433C48.2457 49.9248 47.7655 49.927 47.2398 49.7433C44.5485 48.8075 41.8487 47.8997 39.1574 46.9682C38.8005 46.845 38.7356 46.912 38.7399 47.2795C38.7615 48.6692 38.7486 50.0588 38.7486 51.4464C38.7486 52.2958 38.7464 52.3044 39.5533 52.5508C41.3857 53.1106 43.283 53.2683 45.1803 53.3677C48.183 53.5277 51.1814 53.4628 54.1647 53.0436C55.043 52.9204 55.9171 52.7626 56.7456 52.4362C56.9079 52.3736 57.1199 52.3455 57.1177 52.0667C57.1134 50.3636 57.1177 48.6583 57.1177 46.9509ZM58.247 44.2558C58.1648 44.1543 58.0545 44.1391 57.9485 44.1024C54.9306 43.0628 51.9083 42.0362 48.8991 40.9707C48.2566 40.7438 47.6919 40.7114 47.0321 40.9426C43.9082 42.0427 40.767 43.0909 37.6301 44.1586C37.695 44.258 37.7923 44.271 37.8854 44.3034C41.1499 45.4273 44.4144 46.5511 47.6789 47.6793C47.8434 47.7355 48.0013 47.7485 48.1657 47.6944C51.5232 46.549 54.883 45.4035 58.247 44.2558Z" fill="url(#paint2_linear_0_1)"/>
<path d="M31.9123 30.108C31.6657 30.0864 31.3758 30.1469 31.0902 30.0367C30.5624 29.8292 30.2465 29.3494 30.3287 28.8437C30.4109 28.3314 30.8501 27.9662 31.4191 27.9511C31.7804 27.9424 32.1395 27.9381 32.5008 27.9511C33.1346 27.9727 33.576 28.4265 33.576 29.0317C33.5738 29.6368 33.1281 30.0842 32.4943 30.1058C32.3126 30.1123 32.133 30.108 31.9123 30.108Z" fill="url(#paint3_linear_0_1)"/>
<path d="M41.3814 27.9272C41.5891 27.9272 41.7989 27.9121 42.0045 27.9294C42.5669 27.977 42.9801 28.42 42.9931 28.969C43.0039 29.5093 42.5994 29.9718 42.0347 30.0366C41.5804 30.0907 41.1196 30.0928 40.6653 30.0345C40.0985 29.9632 39.7156 29.5093 39.7286 28.9517C39.7416 28.3833 40.1331 27.9683 40.7172 27.9229C40.9357 27.91 41.1586 27.9251 41.3814 27.9272Z" fill="url(#paint4_linear_0_1)"/>
<path d="M36.6544 27.9251C36.8621 27.9251 37.072 27.9121 37.2775 27.9273C37.8638 27.9726 38.2553 28.379 38.2726 28.9474C38.2899 29.5396 37.9178 29.9761 37.3121 30.041C36.8578 30.0907 36.397 30.095 35.9427 30.0345C35.4105 29.961 35.0081 29.4942 35.0103 28.9776C35.0124 28.433 35.43 27.977 35.9903 27.9294C36.2109 27.91 36.4338 27.9273 36.6544 27.9273V27.9251Z" fill="url(#paint5_linear_0_1)"/>
<defs>
<linearGradient id="paint0_linear_0_1" x1="95" y1="86.5821" x2="-16.7399" y2="45.1732" gradientUnits="userSpaceOnUse">
<stop stop-color="#52FCA9"/>
<stop offset="1" stop-color="#5D0EC1"/>
</linearGradient>
<linearGradient id="paint1_linear_0_1" x1="69.3034" y1="62.2991" x2="19.2562" y2="43.41" gradientUnits="userSpaceOnUse">
<stop stop-color="#52FCA9"/>
<stop offset="1" stop-color="#5D0EC1"/>
</linearGradient>
<linearGradient id="paint2_linear_0_1" x1="62.3144" y1="55.6153" x2="33.1356" y2="39.0855" gradientUnits="userSpaceOnUse">
<stop stop-color="#52FCA9"/>
<stop offset="1" stop-color="#5D0EC1"/>
</linearGradient>
<linearGradient id="paint3_linear_0_1" x1="33.576" y1="30.1094" x2="30.11" y2="28.3479" gradientUnits="userSpaceOnUse">
<stop stop-color="#52FCA9"/>
<stop offset="1" stop-color="#5D0EC1"/>
</linearGradient>
<linearGradient id="paint4_linear_0_1" x1="42.9933" y1="30.0777" x2="39.5286" y2="28.3088" gradientUnits="userSpaceOnUse">
<stop stop-color="#52FCA9"/>
<stop offset="1" stop-color="#5D0EC1"/>
</linearGradient>
<linearGradient id="paint5_linear_0_1" x1="38.2732" y1="30.0791" x2="34.8103" y2="28.3116" gradientUnits="userSpaceOnUse">
<stop stop-color="#52FCA9"/>
<stop offset="1" stop-color="#5D0EC1"/>
</linearGradient>
</defs>
</svg>
