<svg width="96" height="87" viewBox="0 0 96 87" fill="none" xmlns="http://www.w3.org/2000/svg">
<path d="M47.2931 87C42.3543 87 37.3918 86.9935 32.4335 86.9826C26.0435 86.9674 20.9185 84.0443 17.613 78.5303C12.3038 69.6676 7.15064 60.6051 2.37436 52.1333C-0.827159 46.4564 -0.790336 40.4169 2.4805 34.6641C7.06183 26.6049 12.254 17.4707 17.496 8.64921C20.821 3.05273 25.9828 0.0688068 32.4227 0.0188575C35.9708 -0.00720293 39.573 -0.000687819 43.0561 0.0058273C44.6244 0.007999 46.1927 0.0123424 47.7609 0.0123424H47.7631C49.5848 0.0145141 51.4065 0.0145141 53.2282 0.0123424C56.3777 0.0101707 59.5251 0.007999 62.6725 0.0210292C69.0365 0.0470897 74.1139 2.91157 77.3587 8.30826C82.8065 17.3664 88.003 26.5202 92.8074 35.0658C95.9245 40.608 95.8898 46.5129 92.7121 52.1441C88.1849 60.1664 82.9018 69.4809 77.4843 78.5238C74.181 84.04 69.0582 86.9631 62.6703 86.9783C57.5994 86.9935 52.4592 87 47.2931 87ZM38.3622 4.63373C36.3953 4.63373 34.4177 4.63807 32.4595 4.65328C27.6551 4.6902 23.9553 6.8315 21.4665 11.0207C16.2483 19.8031 11.067 28.9177 6.49647 36.9574C4.04226 41.2747 4.00977 45.6138 6.399 49.853C11.1601 58.2966 16.2938 67.3265 21.577 76.1436C24.0377 80.2503 27.6941 82.3373 32.4465 82.3482C42.5839 82.3721 52.7495 82.3721 62.6595 82.346C67.4098 82.3352 71.0661 80.246 73.5247 76.1393C78.9118 67.1419 84.1798 57.8579 88.6918 49.8617C91.0637 45.6594 91.094 41.4463 88.7828 37.3396C83.9957 28.8265 78.8187 19.7054 73.4034 10.6993C71.0033 6.70554 67.3859 4.67282 62.6551 4.65328C59.5143 4.64025 56.3734 4.64242 53.2304 4.64459C51.4065 4.64676 49.5826 4.64676 47.7588 4.64459C46.1883 4.64459 44.6179 4.64242 43.0475 4.63807C41.5052 4.6359 39.9369 4.63373 38.3622 4.63373Z" fill="url(#paint0_linear_0_1)"/>
<path d="M47.2931 87.0003C42.3543 87.0003 37.3918 86.9937 32.4335 86.9829C26.0435 86.9677 20.9185 84.0446 17.613 78.5306C12.3038 69.6679 7.15064 60.6054 2.37436 52.1335C-0.827159 46.4567 -0.790336 40.4172 2.4805 34.6643C7.06183 26.6051 12.254 17.4709 17.496 8.64948C20.821 3.053 25.9828 0.0690729 32.4227 0.0191237C36.0618 -0.00693676 39.755 0.00175006 43.3247 0.00826517C44.8042 0.0126086 46.2836 0.0147803 47.7631 0.0147803C49.4418 0.0147803 51.1227 0.0147803 52.8015 0.0126086C56.0918 0.00826517 59.3821 0.00826517 62.6725 0.0212954C69.0365 0.0473559 74.1139 2.91183 77.3587 8.30852C82.8065 17.3667 88.003 26.5204 92.8074 35.0661C95.9245 40.6083 95.8898 46.5132 92.7121 52.1444C88.1849 60.1667 82.9018 69.4811 77.4843 78.5241C74.181 84.0402 69.0582 86.9633 62.6703 86.9785C57.5994 86.9937 52.4592 87.0003 47.2931 87.0003ZM38.2712 4.634C36.3325 4.634 34.3873 4.63834 32.4573 4.65354C27.6529 4.69046 23.9532 6.83176 21.4643 11.021C16.2461 19.8034 11.0648 28.918 6.4943 36.9577C4.0401 41.275 4.00761 45.6141 6.39683 49.8532C11.1579 58.2968 16.2916 67.3268 21.5748 76.1439C24.0355 80.2506 27.6919 82.3376 32.4443 82.3485C42.5818 82.3724 52.7473 82.3724 62.6573 82.3463C67.4076 82.3354 71.064 80.2463 73.5225 76.1396C78.9096 67.1422 84.1776 57.8581 88.6896 49.8619C91.0615 45.6597 91.0919 41.4466 88.7806 37.3399C83.9935 28.8268 78.8165 19.7056 73.4012 10.6996C71.0012 6.7058 67.3838 4.67309 62.653 4.65354C59.3691 4.64051 56.0875 4.64268 52.8036 4.64486C51.1227 4.64486 49.4397 4.64703 47.7588 4.64703C46.2771 4.64703 44.7955 4.64268 43.3117 4.64051C41.6547 4.63834 39.9673 4.634 38.2712 4.634Z" fill="url(#paint1_linear_0_1)"/>
<path d="M27.6075 62.6182C27.5837 62.5878 27.5664 62.5487 27.5361 62.5313C26.6068 61.9667 26.505 61.1349 27.2783 60.3596C29.4314 58.1988 31.5867 56.038 33.742 53.8793C35.4402 52.1767 37.1449 50.4806 38.8323 48.7671C39.2374 48.3566 39.6836 48.1481 40.2598 48.1807C40.6302 48.2024 41.0006 48.1786 41.371 48.1872C41.566 48.1916 41.6613 48.1677 41.6375 47.9223C41.5573 47.0884 41.4988 46.2501 41.4468 45.414C41.436 45.2424 41.3472 45.1816 41.2129 45.1251C39.4822 44.4041 38.6742 43.0729 38.6807 41.2269C38.685 39.7697 38.6244 38.3103 38.7197 36.8531C38.8995 34.0646 40.1732 31.869 42.3458 30.1643C42.7898 29.8168 43.2577 29.5062 43.7711 29.2739C44.018 29.1631 44.0223 29.0958 43.8491 28.8829C41.4273 25.886 42.9263 21.4036 46.652 20.4741C49.5091 19.7618 52.4442 21.6685 52.9706 24.5786C53.2608 26.1835 52.9337 27.6364 51.8767 28.8916C51.6731 29.1327 51.7792 29.1653 51.9806 29.2739C54.567 30.6746 56.2652 32.7616 56.8761 35.6826C56.967 36.1147 57.0169 36.5491 57.0299 36.9899C57.0753 38.6122 57.1338 40.2388 57.0104 41.8567C56.8956 43.3856 56.0464 44.4519 54.6601 45.0687C54.3742 45.1968 54.2897 45.3358 54.2767 45.6377C54.2464 46.3934 54.1793 47.147 54.1013 47.8984C54.0753 48.1525 54.1576 48.1959 54.3807 48.1894C54.8053 48.1742 55.232 48.1894 55.6565 48.1851C56.0898 48.1807 56.4558 48.3262 56.7656 48.6368C60.6841 52.5697 64.6048 56.5005 68.5298 60.4291C68.7139 60.6137 68.8135 60.8439 68.95 61.0546C68.95 61.2739 68.95 61.4954 68.95 61.7148C68.7724 62.1426 68.4539 62.4293 68.0445 62.6226C54.5648 62.6182 41.0873 62.6182 27.6075 62.6182ZM47.8564 53.4971C48.816 53.4971 49.7777 53.4819 50.7373 53.5057C51.0839 53.5144 51.1619 53.4015 51.1749 53.0692C51.2073 52.2874 51.2897 51.5078 51.3546 50.726C51.5366 48.576 51.7272 46.426 51.8962 44.276C51.9655 43.3856 52.3554 42.9556 53.2392 42.8861C53.9865 42.8253 54.5388 42.2563 54.5432 41.5049C54.5518 40.1432 54.567 38.7794 54.5388 37.4199C54.4695 33.9213 52.1496 31.3435 48.6903 30.8918C44.6982 30.3706 41.2822 33.2872 41.1891 37.3157C41.1566 38.7056 41.1739 40.0955 41.1804 41.4832C41.1847 42.2607 41.7371 42.8318 42.5061 42.8861C43.3508 42.9469 43.7754 43.3965 43.8274 44.2565C43.875 45.0252 43.9487 45.7918 44.0115 46.5585C44.1935 48.7215 44.3927 50.8845 44.5465 53.0497C44.5747 53.4471 44.7025 53.5123 45.0512 53.5057C45.9913 53.484 46.9249 53.4971 47.8564 53.4971ZM42.9761 60.1403C46.2015 60.1403 49.3661 60.1381 52.533 60.1425C52.7518 60.1425 52.7366 60.0643 52.6781 59.8971C52.2687 58.6809 51.868 57.4604 51.4673 56.2399C51.4175 56.0879 51.3633 55.9945 51.1619 55.9967C48.9676 56.0075 46.7755 56.0054 44.5812 56.001C44.4274 56.001 44.3386 56.0314 44.2844 56.1965C43.8599 57.493 43.4267 58.7873 42.9761 60.1403ZM30.9953 60.1403C34.121 60.1403 37.1233 60.1381 40.1277 60.1468C40.327 60.1468 40.3833 60.0599 40.4331 59.9058C40.8295 58.6983 41.2172 57.4865 41.6331 56.2855C41.7306 56.0032 41.631 55.9989 41.41 55.9989C39.4064 56.0032 37.4049 56.001 35.4012 56.001C35.2647 56.001 35.1391 55.9989 35.0265 56.114C33.7116 57.4344 32.3903 58.7504 30.9953 60.1403ZM64.7131 60.1403C63.3441 58.7678 62.0357 57.4582 60.7339 56.1422C60.6256 56.0336 60.5173 56.001 60.3722 56.001C58.3425 56.0032 56.3107 56.0054 54.2811 56.001C54.0904 56.001 54.0103 56.0162 54.0883 56.2508C54.5042 57.4669 54.9027 58.6896 55.3013 59.9123C55.3533 60.0708 55.4161 60.149 55.6111 60.149C58.6155 60.1381 61.6177 60.1403 64.7131 60.1403ZM47.8824 28.2727C49.4311 28.2684 50.5943 27.0826 50.5878 25.5168C50.5813 24.0574 49.3423 22.8261 47.8715 22.8239C46.3877 22.8195 45.1401 24.0661 45.1444 25.5472C45.1509 27.1065 46.3249 28.277 47.8824 28.2727ZM57.9743 53.4992C57.9894 53.4688 58.0046 53.4362 58.0198 53.4058C57.3591 52.75 56.6573 52.1311 56.0529 51.4274C55.5504 50.8454 54.9959 50.5653 54.2421 50.6934C54.2031 50.6999 54.1598 50.6999 54.1186 50.6934C53.9193 50.6608 53.8652 50.7564 53.85 50.9431C53.7894 51.7228 53.7157 52.5024 53.6399 53.2799C53.6247 53.4384 53.6702 53.5014 53.8348 53.5014C55.2147 53.4971 56.5945 53.4992 57.9743 53.4992ZM37.6951 53.3993C37.7125 53.4319 37.732 53.4667 37.7493 53.4992C39.1399 53.4992 40.5327 53.4971 41.9234 53.5014C42.0728 53.5014 42.1097 53.4406 42.0967 53.3016C42.0209 52.5089 41.9472 51.7184 41.8822 50.9236C41.8692 50.752 41.8129 50.7021 41.6375 50.689C40.8923 50.6369 40.2143 50.6782 39.7269 51.3883C39.4822 51.7445 39.1226 52.0203 38.8085 52.3287C38.4403 52.6892 38.0655 53.0432 37.6951 53.3993Z" fill="url(#paint2_linear_0_1)"/>
<defs>
<linearGradient id="paint0_linear_0_1" x1="95.1205" y1="87" x2="-16.8571" y2="45.6507" gradientUnits="userSpaceOnUse">
<stop stop-color="#52FCA9"/>
<stop offset="1" stop-color="#5D0EC1"/>
</linearGradient>
<linearGradient id="paint1_linear_0_1" x1="95.1205" y1="87.0003" x2="-16.8568" y2="45.6505" gradientUnits="userSpaceOnUse">
<stop stop-color="#52FCA9"/>
<stop offset="1" stop-color="#5D0EC1"/>
</linearGradient>
<linearGradient id="paint2_linear_0_1" x1="68.95" y1="62.6226" x2="18.2645" y2="45.5485" gradientUnits="userSpaceOnUse">
<stop stop-color="#52FCA9"/>
<stop offset="1" stop-color="#5D0EC1"/>
</linearGradient>
</defs>
</svg>
