<svg width="96" height="88" viewBox="0 0 96 88" fill="none" xmlns="http://www.w3.org/2000/svg">
<path d="M47.4152 87.0017C42.4637 87.0017 37.4883 86.9952 32.5173 86.9844C26.1107 86.9692 20.9725 84.0461 17.6584 78.5321C12.3356 69.6694 7.1691 60.6068 2.38049 52.135C-0.829295 46.4582 -0.792376 40.4186 2.4869 34.6658C7.08006 26.6066 12.2856 17.4724 17.5412 8.65093C20.8747 3.05444 26.0499 0.0705158 32.5064 0.0205665C36.0637 -0.00549395 39.6752 0.00102117 43.1673 0.00753628C44.7396 0.00970799 46.3119 0.0140514 47.8843 0.0140514H47.8864C49.7128 0.0162231 51.5392 0.0162231 53.3656 0.0140514C56.5233 0.0118797 59.6788 0.00970799 62.8343 0.0227382C69.2148 0.0487987 74.3052 2.91328 77.5584 8.30997C83.0203 17.3682 88.2302 26.5219 93.0471 35.0676C96.1721 40.6098 96.1374 46.5146 92.9515 52.1459C88.4126 60.1681 83.1158 69.4826 77.6844 78.5256C74.3726 84.0417 69.2365 86.9648 62.8321 86.98C57.7481 86.9952 52.5947 87.0017 47.4152 87.0017ZM38.4612 4.63544C36.4893 4.63544 34.5065 4.63979 32.5433 4.65499C27.7265 4.69191 24.0172 6.83321 21.5219 11.0224C16.2903 19.8048 11.0955 28.9195 6.51324 36.9591C4.0527 41.2765 4.02013 45.6155 6.41552 49.8547C11.1889 58.2983 16.3359 67.3283 21.6327 76.1454C24.0997 80.2521 27.7656 82.3391 32.5303 82.35C42.6939 82.3738 52.8857 82.3738 62.8212 82.3478C67.5838 82.3369 71.2496 80.2477 73.7145 76.141C79.1156 67.1437 84.3971 57.8596 88.9208 49.8634C91.2988 45.6611 91.3292 41.448 89.012 37.3413C84.2125 28.8282 79.0222 19.7071 73.5929 10.701C71.1867 6.70725 67.5599 4.67453 62.8169 4.65499C59.6679 4.64196 56.519 4.64413 53.3678 4.6463C51.5392 4.64847 49.7107 4.64847 47.8821 4.6463C46.3076 4.6463 44.7331 4.64413 43.1586 4.63979C41.6124 4.63761 40.04 4.63544 38.4612 4.63544Z" fill="url(#paint0_linear_0_1)"/>
<path d="M47.4152 87.0018C42.4637 87.0018 37.4883 86.9953 32.5173 86.9844C26.1107 86.9692 20.9725 84.0461 17.6584 78.5321C12.3356 69.6694 7.1691 60.6069 2.38049 52.135C-0.829295 46.4582 -0.792376 40.4187 2.4869 34.6658C7.08006 26.6066 12.2856 17.4724 17.5412 8.65095C20.8747 3.05446 26.0499 0.0705378 32.5064 0.0205886C36.1549 -0.00547192 39.8576 0.0032149 43.4366 0.00973002C44.9199 0.0140734 46.4031 0.0162451 47.8864 0.0162451C49.5695 0.0162451 51.2547 0.0162451 52.9378 0.0140734C56.2366 0.00973002 59.5355 0.00973002 62.8343 0.0227603C69.2148 0.0488207 74.3052 2.9133 77.5584 8.30999C83.0203 17.3682 88.2302 26.5219 93.0471 35.0676C96.1721 40.6098 96.1374 46.5147 92.9515 52.1459C88.4126 60.1682 83.1158 69.4826 77.6844 78.5256C74.3726 84.0417 69.2365 86.9649 62.8321 86.9801C57.7481 86.9953 52.5947 87.0018 47.4152 87.0018ZM38.37 4.63546C36.4263 4.63546 34.4761 4.63981 32.5411 4.65501C27.7243 4.69193 24.015 6.83323 21.5197 11.0225C16.2881 19.8048 11.0934 28.9195 6.51107 36.9591C4.05053 41.2765 4.01795 45.6156 6.41335 49.8547C11.1868 58.2983 16.3337 67.3283 21.6305 76.1454C24.0976 80.2521 27.7634 82.3391 32.5281 82.35C42.6917 82.3739 52.8835 82.3739 62.8191 82.3478C67.5816 82.337 71.2475 80.2478 73.7124 76.1411C79.1134 67.1437 84.395 57.8596 88.9186 49.8634C91.2967 45.6612 91.3271 41.4481 89.0099 37.3414C84.2104 28.8283 79.02 19.7071 73.5907 10.701C71.1845 6.70727 67.5577 4.67456 62.8147 4.65501C59.5224 4.64198 56.2323 4.64415 52.94 4.64632C51.2547 4.64632 49.5673 4.6485 47.8821 4.6485C46.3966 4.6485 44.9112 4.64415 43.4236 4.64198C41.7622 4.63981 40.0704 4.63546 38.37 4.63546Z" fill="url(#paint1_linear_0_1)"/>
<path d="M74.9656 43.5473C74.9634 43.4307 74.9612 43.314 74.959 43.1952C74.9546 43.0786 74.9524 42.9619 74.948 42.8453C74.97 42.6318 74.9612 42.4206 74.8908 42.2137C74.8666 41.2982 74.7104 40.396 74.5365 39.5003C74.2505 38.0391 73.894 36.5955 73.3065 35.2179C73.2823 35.0595 73.2581 34.8988 73.1371 34.7778C72.3383 32.6212 71.2226 30.6384 69.8364 28.8074C69.6867 28.5522 69.5217 28.3079 69.2972 28.1098C69.2422 28.0262 69.1916 27.936 69.1278 27.8568C67.7987 26.2173 66.3046 24.7451 64.6257 23.4665C60.7749 20.5353 56.4576 18.7572 51.6429 18.1938C47.9858 17.7669 44.3858 18.042 40.8673 19.1159C35.4696 20.7663 31.0246 23.834 27.5457 28.2815C26.4411 29.6943 25.4641 31.1951 24.7247 32.8412C24.6477 32.8874 24.6367 32.9644 24.6279 33.0415C24.5179 33.1955 24.4078 33.3496 24.3924 33.5476C24.2934 33.6092 24.2934 33.7215 24.2626 33.8161C24.2318 33.8667 24.1966 33.9129 24.1724 33.9657C22.9555 36.7847 22.2316 39.7292 22.0511 42.7925C21.8443 46.3047 22.258 49.7465 23.4176 53.0826C24.2824 55.5716 25.4509 57.902 27.0308 60.0168C27.2332 60.3293 27.4379 60.6396 27.7063 60.9015C27.7987 61.1744 28.032 61.3394 28.2058 61.5441C29.3083 62.8447 30.4921 64.0616 31.852 65.0959C32.1227 65.3512 32.4109 65.5822 32.73 65.7759C33.1811 66.1676 33.6872 66.4867 34.1889 66.8036C35.5862 67.6905 37.0275 68.4981 38.5942 69.0548C38.7218 69.1539 38.8671 69.2133 39.0255 69.2397C39.7957 69.5808 40.5988 69.8207 41.4086 70.0429C42.9819 70.4721 44.5751 70.8043 46.2122 70.8858C46.5907 70.9848 46.9758 70.9826 47.3631 70.9584C49.9002 71.108 52.4087 70.8704 54.8644 70.2388C61.358 68.5663 66.5357 64.9727 70.3755 59.4733C71.1742 58.329 71.9026 57.1362 72.4395 55.8378C72.664 55.4725 72.8444 55.0874 72.961 54.6737C73.5859 53.3423 73.993 51.9405 74.3253 50.5145C74.8622 48.2258 75.0933 45.902 74.9656 43.5473ZM47.0066 20.3394C47.3036 20.2514 47.4555 20.2338 47.4489 20.6475C47.4225 22.254 47.4379 23.8604 47.4379 25.4647C47.4379 27.0557 47.4203 28.649 47.4489 30.2379C47.4555 30.6516 47.3256 30.6978 46.956 30.6912C44.5443 30.6384 42.159 30.3545 39.7847 29.9452C39.2367 29.8505 39.2301 29.8483 39.437 29.3334C40.4646 26.7763 41.7101 24.349 43.6905 22.3772C44.6345 21.4397 45.7193 20.7267 47.0066 20.3394ZM40.2578 56.8633C39.7869 56.8545 39.338 56.9998 38.8825 57.09C38.6404 57.1384 38.5656 57.1098 38.493 56.8633C38.0617 55.3955 37.747 53.9013 37.4874 52.396C37.1353 50.3517 36.9747 48.2875 36.8713 46.2167C36.8404 45.5807 36.8492 45.5829 37.4654 45.5807C39.1883 45.5763 40.9113 45.5697 42.6321 45.5631C42.7487 45.5631 42.8653 45.5631 42.9819 45.5631C44.3396 45.5697 45.6973 45.5851 47.0528 45.5741C47.3608 45.5719 47.4423 45.6555 47.4401 45.9614C47.4291 49.2315 47.4269 52.5017 47.4423 55.774C47.4445 56.1129 47.3388 56.1701 47.0264 56.1833C45.2924 56.2538 43.5585 56.3286 41.8421 56.6191C41.3096 56.6543 40.7771 56.7159 40.2578 56.8633ZM38.0441 30.2995C38.0089 30.2291 38.0067 30.1102 38.0089 29.9188C38.0067 30.108 38.0089 30.2269 38.0441 30.2995ZM38.4204 32.3703C38.5194 32.0138 38.6008 31.8729 39.0453 31.9632C41.7079 32.5023 44.4056 32.7642 47.1188 32.8456C47.3608 32.8522 47.4423 32.9116 47.4401 33.1647C47.4313 36.4789 47.4313 39.793 47.4401 43.105C47.4401 43.3756 47.3675 43.4527 47.0968 43.4483C46.2518 43.4373 45.4046 43.4549 44.5575 43.4593C44.3528 43.4593 44.1482 43.4571 43.9435 43.4571C41.7541 43.4505 39.5646 43.4351 37.3774 43.4505C36.9703 43.4527 36.8316 43.3845 36.8536 42.9377C37.0209 39.3617 37.4676 35.8297 38.4204 32.3703ZM33.795 25.0862C36.1385 23.3125 38.724 22.0141 41.534 21.1602C41.6308 21.1316 41.7233 21.0876 41.8465 21.1514C41.7101 21.4331 41.4614 21.6202 41.2678 21.849C39.5316 23.9132 38.3236 26.2723 37.3686 28.7766C37.1463 29.362 37.1573 29.3488 36.5346 29.1882C34.8996 28.7634 33.3307 28.1583 31.775 27.5113C31.7442 27.4915 31.7156 27.4739 31.6848 27.4541C31.6276 27.4343 31.5725 27.4166 31.5153 27.3968C31.4669 27.4629 31.4251 27.5355 31.3811 27.6037C31.4251 27.5333 31.4669 27.4629 31.5153 27.3968C31.2095 27.2054 31.4713 27.091 31.5835 26.9743C32.1447 26.3978 32.829 25.9532 33.3527 25.3371C33.5486 25.3393 33.6608 25.1874 33.795 25.0862ZM29.5811 29.1507C29.7264 28.9703 29.8298 28.9021 30.0762 29.0253C32.028 30.0134 34.0745 30.7528 36.1913 31.2964C36.462 31.3668 36.4796 31.457 36.4092 31.7035C35.3595 35.4072 34.838 39.1922 34.7588 43.0389C34.7522 43.4065 34.618 43.4505 34.3011 43.4505C31.0906 43.4395 27.8802 43.4439 24.6697 43.4461C24.5817 43.4461 24.4959 43.4549 24.4078 43.4615C24.3242 43.4527 24.2384 43.4439 24.1548 43.4351C24.4408 38.0941 26.2386 33.3298 29.5811 29.1507ZM29.6185 59.9112C29.5107 59.7594 29.3765 59.6251 29.2533 59.4843C29.1014 59.2796 28.9496 59.0728 28.7956 58.8681C27.5523 57.0856 26.4895 55.2063 25.7259 53.1641C24.9161 50.9986 24.3858 48.7716 24.2318 46.4609C24.1724 45.5785 24.1746 45.5807 25.0746 45.5785C27.6865 45.5741 30.2963 45.5653 32.9082 45.5609C33.0535 45.5609 33.2009 45.5609 33.3461 45.5609C33.7092 45.5675 34.0723 45.5829 34.4331 45.5741C34.64 45.5697 34.7434 45.6027 34.7478 45.8514C34.772 47.6955 34.9282 49.533 35.1747 51.3596C35.2099 51.617 35.2583 51.8745 35.3001 52.1298C35.3485 52.5765 35.4101 53.021 35.5334 53.4568C35.716 54.7661 36.0483 56.0447 36.4092 57.3145C36.4818 57.5675 36.4598 57.6468 36.1935 57.7172C34.0701 58.2739 32.0082 59.0045 30.0498 60.0058C29.854 60.1093 29.7396 60.0851 29.6185 59.9112ZM40.4668 67.5078C38.3104 66.7552 36.2969 65.7209 34.4353 64.3983C34.3209 64.3169 34.2175 64.2002 34.0525 64.2156C33.9996 64.0286 33.839 63.9604 33.6894 63.879C33.6674 63.8834 33.6476 63.8878 33.6256 63.89C33.6476 63.8856 33.6674 63.8834 33.6894 63.879C32.9676 63.2672 32.2305 62.673 31.5461 62.015C31.3415 61.8192 31.3195 61.7377 31.6055 61.6079C33.2757 60.8465 35.0075 60.2567 36.77 59.7506C37.1375 59.6449 37.2057 59.8056 37.3047 60.0719C38.1981 62.4551 39.3204 64.7174 40.9091 66.7244C41.2128 67.1095 41.5384 67.477 41.9059 67.9105C41.347 67.8511 40.9091 67.664 40.4668 67.5078ZM42.9225 65.8177C41.336 63.9362 40.2468 61.7729 39.3622 59.4931C39.2433 59.1828 39.3688 59.163 39.6042 59.1168C41.2656 58.7955 42.9401 58.5776 44.6279 58.45C45.442 58.3884 46.2606 58.3818 47.0748 58.3246C47.3675 58.3047 47.4467 58.3862 47.4445 58.6789C47.4313 60.3139 47.4379 61.949 47.4379 63.5841C47.4379 65.1751 47.4269 66.7662 47.4467 68.3572C47.4511 68.7358 47.3498 68.7886 47.0132 68.6873C45.332 68.179 44.0294 67.1315 42.9225 65.8177ZM67.4599 29.1882C69.053 31.1797 70.3271 33.354 71.2381 35.7372C71.2843 35.8583 71.3437 35.9771 71.3965 36.096C71.4141 36.1026 71.4339 36.1092 71.4515 36.1158C71.4889 36.129 71.5263 36.1422 71.5659 36.1554C71.5263 36.1422 71.4867 36.129 71.4515 36.1158C71.4339 36.1092 71.4141 36.1026 71.3965 36.096C71.4735 36.3094 71.5505 36.5229 71.6275 36.7385C71.9906 37.9929 72.3427 39.2473 72.5517 40.539C72.6926 41.4017 72.7454 42.2731 72.851 43.138C72.8928 43.4703 72.7058 43.4439 72.4923 43.4439C69.9574 43.4417 67.4225 43.4439 64.8897 43.4461C64.7445 43.4461 64.5993 43.4571 64.454 43.4637C64.2494 43.4637 64.0447 43.4615 63.8401 43.4615C63.7521 43.4615 63.6663 43.4615 63.5782 43.4615C63.4902 43.4615 63.4022 43.4615 63.3142 43.4615C62.9753 43.3844 62.5154 43.6111 62.3196 43.3536C62.1546 43.138 62.2668 42.7089 62.2514 42.3744C62.0907 38.7565 61.5978 35.1893 60.601 31.7013C60.5262 31.4394 60.568 31.369 60.8233 31.303C62.9247 30.7594 64.9579 30.0244 66.8988 29.0517C67.1848 28.9065 67.2948 28.9791 67.4599 29.1882ZM49.5701 45.8734C49.5701 45.6445 49.6361 45.5719 49.8672 45.5741C50.5515 45.5807 51.2381 45.5653 51.9246 45.5587C52.2745 45.5587 52.6266 45.5609 52.9764 45.5609C55.2099 45.5675 57.4412 45.5851 59.6746 45.5653C60.1015 45.5609 60.1697 45.7017 60.1521 46.0802C59.9959 49.6563 59.547 53.1883 58.592 56.6477C58.493 57.002 58.4138 57.145 57.9671 57.0548C55.3045 56.5156 52.6067 56.2516 49.8936 56.1723C49.6537 56.1657 49.5701 56.1085 49.5701 55.8554C49.5767 52.5281 49.5767 49.2007 49.5701 45.8734ZM56.5192 21.4991C59.8617 22.6699 62.8125 24.4832 65.3782 26.9237C65.7259 27.2538 65.7215 27.2538 65.277 27.4629C63.6663 28.2133 61.9851 28.7634 60.282 29.2586C59.9475 29.3554 59.8243 29.274 59.701 28.9439C58.8274 26.5716 57.7074 24.3248 56.1341 22.3288C55.8128 21.9217 55.4607 21.5344 55.0911 21.1008C55.617 21.1382 56.0659 21.3407 56.5192 21.4991ZM49.5745 21.53C49.5745 21.2241 49.6009 20.9138 49.5679 20.6101C49.5283 20.2382 49.6977 20.2514 49.9662 20.3284C51.1214 20.6651 52.127 21.2659 53.0006 22.0801C53.4473 22.496 53.8544 22.9538 54.2769 23.3939C54.3891 23.5369 54.5035 23.6822 54.6158 23.8252C55.9338 25.6341 56.9152 27.6213 57.7272 29.7009C57.6018 29.9892 57.2981 29.8704 57.0935 29.976C57.0341 29.9848 56.9725 29.9936 56.9131 30.0024C56.8756 30.0134 56.8404 30.0266 56.803 30.0376C55.5026 30.2027 54.2087 30.4117 52.9016 30.5283C51.8828 30.6186 50.8618 30.6428 49.843 30.6978C49.4777 30.7176 49.5767 30.4711 49.5767 30.2907C49.5745 27.3704 49.5745 24.4502 49.5745 21.53ZM49.5657 33.2439C49.5635 32.8962 49.6801 32.85 49.986 32.8412C51.5747 32.7972 53.1591 32.6652 54.739 32.4935C54.8534 32.4803 54.9656 32.4407 55.0779 32.4143C55.2583 32.4231 55.4387 32.4209 55.6038 32.3285C55.6324 32.3263 55.661 32.3241 55.6896 32.3219C56.0549 32.3439 56.4025 32.2536 56.7502 32.1568C57.2079 32.1788 57.648 32.0446 58.0793 31.939C58.416 31.8553 58.4776 31.9808 58.5458 32.2316C58.9529 33.7171 59.294 35.2179 59.5382 36.7407C59.5888 37.0554 59.6504 37.3679 59.7076 37.6804C59.7142 37.7376 59.7186 37.7926 59.7252 37.8499C59.7362 37.9379 59.745 38.0237 59.756 38.1117C59.7737 38.1998 59.7935 38.2878 59.8111 38.3758C59.9101 39.6984 60.0047 41.021 60.1103 42.3413C60.1983 43.4417 60.2027 43.4417 59.0893 43.4417C56.0549 43.4417 53.0204 43.4373 49.9838 43.4483C49.6713 43.4505 49.5613 43.3955 49.5635 43.05C49.5811 39.782 49.5811 36.5141 49.5657 33.2439ZM53.1767 66.7816C52.2833 67.6398 51.2689 68.3044 50.0652 68.6543C49.9134 68.6983 49.766 68.7622 49.5767 68.7358C49.5767 68.6169 49.5767 68.5025 49.5767 68.3859C49.5767 65.1751 49.5811 61.9622 49.5679 58.7515C49.5657 58.4126 49.6405 58.318 49.9992 58.3268C52.4395 58.3796 54.8534 58.6657 57.2563 59.0772C57.593 59.1344 57.7954 59.1894 57.6106 59.6361C56.5236 62.2637 55.2605 64.7768 53.1767 66.7816ZM56.6094 67.4836C56.1209 67.6486 55.6434 67.8555 55.0559 67.9325C57.2343 65.6307 58.6272 62.9503 59.6988 60.0851C59.8155 59.7748 59.9167 59.6559 60.271 59.7572C62.0159 60.2633 63.7345 60.8377 65.3892 61.6013C65.6379 61.7157 65.7083 61.8082 65.4949 62.0084C64.4232 63.0009 63.2878 63.912 62.0995 64.757C60.3634 65.8595 58.5612 66.8212 56.6094 67.4836ZM68.0166 59.1102C67.9044 59.262 67.8009 59.4183 67.6931 59.5723C67.5897 59.6889 67.4709 59.7946 67.385 59.9244C67.2794 60.0807 67.1628 60.1203 66.9978 60.0366C65.3892 59.174 63.6795 58.571 61.9433 58.0275C61.6947 57.9482 61.4372 57.8932 61.1863 57.8206C60.5086 57.6248 60.5152 57.6248 60.711 56.9272C61.5428 53.9563 61.9829 50.9216 62.1876 47.8473C62.1964 47.7021 62.1832 47.5569 62.181 47.4116C62.2316 47.2092 62.2536 47.0045 62.2316 46.7976C62.236 46.6788 62.2404 46.56 62.2448 46.4433C62.2558 46.1594 62.2668 45.8756 62.2778 45.5917C62.39 45.5829 62.5044 45.5741 62.6166 45.5653C62.8213 45.5653 63.0259 45.5653 63.2306 45.5675C66.0318 45.5741 68.833 45.5785 71.6341 45.5851C71.8828 45.5851 72.1336 45.6093 72.3779 45.5807C72.785 45.5301 72.873 45.6643 72.84 46.078C72.6596 48.3975 72.2041 50.6553 71.4097 52.845C70.5845 55.0962 69.4513 57.1846 68.0166 59.1102Z" fill="url(#paint2_linear_0_1)"/>
<defs>
<linearGradient id="paint0_linear_0_1" x1="95.3661" y1="87.0017" x2="-16.8311" y2="45.4644" gradientUnits="userSpaceOnUse">
<stop stop-color="#52FCA9"/>
<stop offset="1" stop-color="#5D0EC1"/>
</linearGradient>
<linearGradient id="paint1_linear_0_1" x1="95.3661" y1="87.0018" x2="-16.8307" y2="45.464" gradientUnits="userSpaceOnUse">
<stop stop-color="#52FCA9"/>
<stop offset="1" stop-color="#5D0EC1"/>
</linearGradient>
<linearGradient id="paint2_linear_0_1" x1="75" y1="71.0017" x2="11.3592" y2="49.5077" gradientUnits="userSpaceOnUse">
<stop stop-color="#52FCA9"/>
<stop offset="1" stop-color="#5D0EC1"/>
</linearGradient>
</defs>
</svg>
