<svg width="96" height="87" viewBox="0 0 96 87" fill="none" xmlns="http://www.w3.org/2000/svg">
<path d="M47.3754 87C42.4281 87 37.4569 86.9935 32.49 86.9826C26.0889 86.9674 20.9549 84.0443 17.6437 78.5303C12.3253 69.6676 7.16309 60.6051 2.37849 52.1333C-0.8286 46.4564 -0.791712 40.4169 2.48482 34.6641C7.07413 26.6049 12.2753 17.4707 17.5265 8.64921C20.8573 3.05273 26.0281 0.0688068 32.4792 0.0188575C36.0334 -0.00720293 39.642 -0.000687819 43.1311 0.0058273C44.7021 0.007999 46.2731 0.0123424 47.8441 0.0123424H47.8463C49.6712 0.0145141 51.4961 0.0145141 53.3209 0.0123424C56.476 0.0101707 59.6288 0.007999 62.7816 0.0210292C69.1568 0.0470897 74.243 2.91157 77.4935 8.30826C82.9507 17.3664 88.1563 26.5202 92.9691 35.0658C96.0916 40.608 96.0569 46.5129 92.8736 52.1441C88.3386 60.1664 83.0462 69.4809 77.6193 78.5238C74.3103 84.04 69.1785 86.9631 62.7795 86.9783C57.6998 86.9935 52.5506 87 47.3754 87ZM38.429 4.63373C36.4587 4.63373 34.4776 4.63807 32.5161 4.65328C27.7032 4.6902 23.9971 6.8315 21.5039 11.0207C16.2766 19.8031 11.0863 28.9177 6.50779 36.9574C4.04931 41.2747 4.01676 45.6138 6.41014 49.853C11.1796 58.2966 16.3222 67.3265 21.6145 76.1436C24.0795 80.2503 27.7423 82.3373 32.503 82.3482C42.6581 82.3721 52.8414 82.3721 62.7686 82.346C67.5272 82.3352 71.19 80.246 73.6528 76.1393C79.0493 67.1419 84.3265 57.8579 88.8463 49.8617C91.2224 45.6594 91.2527 41.4463 88.9375 37.3396C84.142 28.8265 78.956 19.7054 73.5313 10.6993C71.127 6.70554 67.5033 4.67282 62.7643 4.65328C59.6179 4.64025 56.4716 4.64242 53.3231 4.64459C51.4961 4.64676 49.669 4.64676 47.842 4.64459C46.2688 4.64459 44.6956 4.64242 43.1225 4.63807C41.5775 4.6359 40.0065 4.63373 38.429 4.63373Z" fill="url(#paint0_linear_0_1)"/>
<path d="M47.3754 87.0003C42.4281 87.0003 37.4569 86.9937 32.49 86.9829C26.0889 86.9677 20.9549 84.0446 17.6437 78.5306C12.3253 69.6679 7.16309 60.6054 2.37849 52.1335C-0.8286 46.4567 -0.791712 40.4172 2.48482 34.6643C7.07413 26.6051 12.2753 17.4709 17.5265 8.64948C20.8573 3.053 26.0281 0.0690729 32.4792 0.0191237C36.1246 -0.00693676 39.8242 0.00175006 43.4002 0.00826517C44.8822 0.0126086 46.3643 0.0147803 47.8463 0.0147803C49.528 0.0147803 51.2118 0.0147803 52.8935 0.0126086C56.1895 0.00826517 59.4856 0.00826517 62.7816 0.0212954C69.1568 0.0473559 74.243 2.91183 77.4935 8.30852C82.9507 17.3667 88.1563 26.5204 92.9691 35.0661C96.0916 40.6083 96.0569 46.5132 92.8736 52.1444C88.3386 60.1667 83.0462 69.4811 77.6193 78.5241C74.3103 84.0402 69.1785 86.9633 62.7795 86.9785C57.6998 86.9938 52.5506 87.0003 47.3754 87.0003ZM38.3379 4.634C36.3958 4.634 34.4473 4.63834 32.5139 4.65354C27.7011 4.69046 23.9949 6.83176 21.5017 11.021C16.2745 19.8034 11.0841 28.918 6.50562 36.9577C4.04714 41.275 4.01459 45.6141 6.40797 49.8532C11.1774 58.2968 16.32 67.3268 21.6124 76.1439C24.0774 80.2506 27.7401 82.3376 32.5009 82.3485C42.6559 82.3724 52.8392 82.3724 62.7665 82.3463C67.525 82.3354 71.1878 80.2463 73.6506 76.1396C79.0471 67.1422 84.3243 57.8582 88.8442 49.8619C91.2202 45.6597 91.2506 41.4466 88.9353 37.3399C84.1398 28.8268 78.9538 19.7056 73.5291 10.6996C71.1249 6.7058 67.5011 4.67309 62.7621 4.65354C59.4726 4.64051 56.1852 4.64268 52.8956 4.64486C51.2118 4.64486 49.5258 4.64703 47.842 4.64703C46.3578 4.64703 44.8736 4.64268 43.3872 4.64051C41.7272 4.63834 40.0369 4.634 38.3379 4.634Z" fill="url(#paint1_linear_0_1)"/>
<path d="M23.6565 39.5439C24.6872 38.8251 25.618 37.9803 26.5923 37.192C28.2414 35.8629 29.8689 34.5099 31.518 33.1808C31.7849 32.9658 31.8803 32.7465 31.8782 32.4077C31.8651 29.1654 31.8782 25.9252 31.8608 22.6828C31.8586 22.3028 31.9476 22.1985 32.3338 22.2029C34.9746 22.2202 37.6132 22.2202 40.2539 22.2029C40.6228 22.2007 40.7096 22.3028 40.7009 22.6568C40.6771 23.6232 40.6922 24.5917 40.6922 25.6537C40.8962 25.4908 41.0546 25.3692 41.2087 25.2411C43.1095 23.6861 45.0125 22.1355 46.9046 20.5697C47.1412 20.3743 47.2757 20.3852 47.5122 20.5784C55.1784 26.8633 62.849 33.1396 70.5282 39.4093C70.8038 39.6351 70.7842 39.7524 70.5781 40.0022C68.801 42.1587 67.0347 44.3217 65.2792 46.4934C65.0688 46.754 64.9342 46.7431 64.7086 46.539C64.357 46.2219 63.9795 45.9331 63.5325 45.5682C63.5325 45.8006 63.5325 45.957 63.5325 46.1155C63.5325 51.4471 63.5281 56.7764 63.5412 62.108C63.5412 62.4923 63.4782 62.6205 63.0529 62.6205C52.5073 62.6053 41.9616 62.6074 31.416 62.6183C31.0428 62.6183 30.9321 62.5445 30.9321 62.1492C30.9473 56.8025 30.9429 51.4557 30.9429 46.1112C30.9429 45.9418 30.9429 45.7746 30.9429 45.5118C30.522 45.8549 30.1314 46.1351 29.7842 46.463C29.5303 46.7019 29.3958 46.6802 29.1788 46.4109C27.482 44.3087 25.7721 42.2195 24.0601 40.1303C23.9407 39.9848 23.8669 39.7872 23.6565 39.7307C23.6565 39.6656 23.6565 39.6047 23.6565 39.5439ZM47.2345 59.8298C51.5786 59.8298 55.9205 59.8255 60.2646 59.8385C60.64 59.8407 60.7485 59.7603 60.7463 59.3673C60.7312 54.1443 60.7333 48.9235 60.7442 43.7006C60.7442 43.3922 60.6487 43.1946 60.4144 43.0035C56.1115 39.494 51.8129 35.978 47.5231 32.4511C47.2627 32.2383 47.126 32.2579 46.8786 32.462C42.6104 35.9671 38.3358 39.4636 34.0524 42.9513C33.8094 43.149 33.7313 43.3509 33.7313 43.6506C33.7399 48.8888 33.7421 54.1248 33.7269 59.3629C33.7269 59.7495 33.8246 59.8385 34.2043 59.8385C38.5484 59.8233 42.8925 59.8298 47.2345 59.8298ZM29.8515 42.7819C29.973 42.6864 30.0815 42.606 30.1878 42.5213C33.2756 39.9956 36.3633 37.47 39.4511 34.9464C41.9443 32.9072 44.4418 30.8723 46.9307 28.8244C47.1303 28.6593 47.2713 28.5942 47.4601 28.8114C47.5404 28.9026 47.6511 28.9656 47.7444 29.0437C53.2776 33.5696 58.813 38.0932 64.3375 42.6299C64.6044 42.8493 64.7064 42.7972 64.8908 42.5648C65.4593 41.8416 66.0344 41.1206 66.6376 40.4278C66.8936 40.1346 66.8502 40 66.5595 39.7633C60.2364 34.6055 53.9177 29.439 47.6142 24.2551C47.2779 23.9772 47.1043 24.0097 46.794 24.266C42.9793 27.4041 39.1516 30.527 35.3283 33.6521C32.8351 35.6913 30.3419 37.7327 27.8465 39.7698C27.6881 39.9001 27.5275 39.9826 27.7359 40.2302C28.402 41.0142 29.0421 41.8177 29.6931 42.6126C29.7387 42.669 29.7951 42.7211 29.8515 42.7819ZM34.6817 30.5791C35.7579 29.7018 36.7474 28.8895 37.7434 28.0838C37.8736 27.9774 37.9213 27.858 37.9213 27.6886C37.9148 26.8916 37.9105 26.0946 37.9235 25.2976C37.9278 25.063 37.8649 24.9761 37.6175 24.9805C36.7452 24.9935 35.8729 24.9935 34.9985 24.9805C34.7685 24.9783 34.6773 25.0283 34.6795 25.2802C34.686 27.011 34.6817 28.7419 34.6817 30.5791Z" fill="url(#paint2_linear_0_1)"/>
<defs>
<linearGradient id="paint0_linear_0_1" x1="95.2863" y1="87" x2="-16.8396" y2="45.5238" gradientUnits="userSpaceOnUse">
<stop stop-color="#52FCA9"/>
<stop offset="1" stop-color="#5D0EC1"/>
</linearGradient>
<linearGradient id="paint1_linear_0_1" x1="95.2863" y1="87.0003" x2="-16.8392" y2="45.5237" gradientUnits="userSpaceOnUse">
<stop stop-color="#52FCA9"/>
<stop offset="1" stop-color="#5D0EC1"/>
</linearGradient>
<linearGradient id="paint2_linear_0_1" x1="70.734" y1="62.6205" x2="15.5879" y2="41.839" gradientUnits="userSpaceOnUse">
<stop stop-color="#52FCA9"/>
<stop offset="1" stop-color="#5D0EC1"/>
</linearGradient>
</defs>
</svg>
