<svg width="97" height="89" viewBox="0 0 97 89" fill="none" xmlns="http://www.w3.org/2000/svg">
<path d="M47.7314 88.0032C42.7469 88.0032 37.7383 87.9966 32.7341 87.9856C26.2849 87.9703 21.1123 85.0135 17.7762 79.4361C12.4179 70.4713 7.21691 61.3045 2.39636 52.7351C-0.834826 46.9929 -0.797661 40.8839 2.50349 35.0648C7.12728 26.9128 12.3676 17.6735 17.6582 8.75049C21.014 3.08958 26.2237 0.0713078 32.7232 0.0207836C36.3042 -0.00557687 39.9398 0.00101325 43.4552 0.00760336C45.038 0.00980007 46.6208 0.0141935 48.2036 0.0141935H48.2058C50.0444 0.0163902 51.883 0.0163902 53.7216 0.0141935C56.9003 0.0119968 60.0768 0.00980007 63.2533 0.0229803C69.6764 0.0493408 74.8008 2.94679 78.0757 8.40561C83.574 17.5681 88.8187 26.8272 93.6676 35.4712C96.8136 41.0772 96.7786 47.05 93.5714 52.7461C89.0023 60.8607 83.6702 70.2824 78.2025 79.4295C74.8686 85.0091 69.6982 87.9659 63.2512 87.9812C58.1333 87.9966 52.9455 88.0032 47.7314 88.0032ZM38.7177 4.68878C36.7327 4.68878 34.7367 4.69317 32.7604 4.70855C27.9114 4.7459 24.1774 6.91185 21.6654 11.1493C16.3989 20.0328 11.1695 29.2523 6.55668 37.3845C4.07973 41.7516 4.04694 46.1406 6.45831 50.4286C11.2636 58.9694 16.4448 68.1033 21.7769 77.0219C24.2605 81.1758 27.9507 83.2869 32.7472 83.2979C42.9786 83.322 53.2384 83.322 63.2402 83.2957C68.0345 83.2847 71.7248 81.1715 74.2062 77.0175C79.6432 67.9165 84.96 58.5256 89.5139 50.4374C91.9077 46.1867 91.9383 41.9251 89.6057 37.7712C84.7742 29.1601 79.5492 19.9339 74.0837 10.8242C71.6614 6.78444 68.0105 4.72832 63.2359 4.70855C60.0659 4.69537 56.8959 4.69757 53.7237 4.69976C51.883 4.70196 50.0422 4.70196 48.2014 4.69976C46.6164 4.69976 45.0315 4.69757 43.4465 4.69317C41.8899 4.69098 40.3071 4.68878 38.7177 4.68878Z" fill="url(#paint0_linear_0_1)"/>
<path d="M47.7314 88.0035C42.7469 88.0035 37.7383 87.9969 32.7341 87.9859C26.2849 87.9705 21.1123 85.0137 17.7762 79.4363C12.4179 70.4716 7.21691 61.3047 2.39636 52.7354C-0.834826 46.9932 -0.797661 40.8841 2.50349 35.0651C7.12728 26.9131 12.3676 17.6738 17.6582 8.75074C21.014 3.08983 26.2237 0.0715602 32.7232 0.021036C36.396 -0.00532449 40.1235 0.00346232 43.7263 0.0100524C45.2195 0.0144458 46.7126 0.0166426 48.2058 0.0166426C49.9001 0.0166426 51.5966 0.0166426 53.2909 0.0144458C56.6117 0.0100524 59.9325 0.0100524 63.2533 0.0232327C69.6764 0.0495931 74.8008 2.94705 78.0757 8.40586C83.574 17.5683 88.8187 26.8274 93.6676 35.4715C96.8136 41.0774 96.7786 47.0503 93.5714 52.7463C89.0023 60.861 83.6702 70.2826 78.2025 79.4297C74.8686 85.0093 69.6982 87.9661 63.2512 87.9815C58.1333 87.9969 52.9455 88.0035 47.7314 88.0035ZM38.6259 4.68903C36.6693 4.68903 34.7061 4.69343 32.7582 4.7088C27.9092 4.74615 24.1752 6.9121 21.6633 11.1495C16.3967 20.033 11.1674 29.2526 6.5545 37.3848C4.07754 41.7518 4.04475 46.1409 6.45612 50.4288C11.2614 58.9696 16.4426 68.1035 21.7748 77.0221C24.2583 81.1761 27.9486 83.2871 32.7451 83.2981C42.9764 83.3223 53.2362 83.3223 63.238 83.2959C68.0324 83.2849 71.7226 81.1717 74.204 77.0177C79.641 67.9168 84.9578 58.5259 89.5117 50.4376C91.9056 46.187 91.9362 41.9254 89.6035 37.7714C84.772 29.1603 79.547 19.9342 74.0816 10.8244C71.6592 6.78469 68.0083 4.72857 63.2337 4.7088C59.9194 4.69562 56.6073 4.69782 53.2931 4.70002C51.5966 4.70002 49.8979 4.70221 48.2014 4.70221C46.7061 4.70221 45.2107 4.69782 43.7132 4.69562C42.0407 4.69343 40.3377 4.68903 38.6259 4.68903Z" fill="url(#paint1_linear_0_1)"/>
<path d="M41.8375 48.6996C43.8597 45.6352 46.2798 42.9794 48.9972 40.5937C49.2989 40.3279 49.6028 40.0643 49.922 39.8183C50.4729 39.3921 51.1004 39.4273 51.4807 39.8886C51.8918 40.3873 51.8065 41.0001 51.2315 41.4724C49.2902 43.0672 47.5237 44.84 45.9169 46.7709C43.7438 49.385 41.9096 52.1989 40.8865 55.4852C40.6416 56.2716 40.4536 57.0668 40.3465 57.884C40.2481 58.6419 39.7518 59.0812 39.1222 58.9955C38.486 58.9099 38.1625 58.3629 38.263 57.6006C38.5625 55.327 39.3408 53.2138 40.3924 51.1972C40.5695 50.8567 40.5432 50.6327 40.3443 50.3208C37.6465 46.1097 38.18 41.1671 41.1641 37.4019C42.5502 35.6534 44.5155 34.9065 46.6296 34.4671C48.1949 34.142 49.7865 33.9553 51.3255 33.5006C52.6044 33.1228 53.7456 32.5187 54.7294 31.6092C55.5318 30.8689 56.3887 31.1237 56.6533 32.1913C57.5037 35.6028 57.965 39.0582 57.6371 42.5796C57.4447 44.6489 56.9681 46.6479 55.9253 48.4755C54.2135 51.4762 51.5463 52.959 48.2146 53.3874C47.7642 53.4445 47.3073 53.484 46.8526 53.495C46.1617 53.5126 45.6961 53.0886 45.6808 52.4713C45.6655 51.8672 46.0765 51.4499 46.752 51.4037C48.1556 51.3049 49.5372 51.1028 50.8271 50.4877C53.2603 49.3278 54.5174 47.2695 55.1404 44.7433C55.7591 42.2369 55.6935 39.6953 55.4246 37.1515C55.3328 36.2794 55.1667 35.4161 55.0224 34.5506C54.994 34.3837 55.0268 34.0849 54.6791 34.3046C52.8515 35.4578 50.7834 35.8664 48.7021 36.2289C47.8604 36.3761 47.0253 36.5386 46.1945 36.7473C44.1395 37.2591 42.6638 38.4542 41.7325 40.3741C40.5104 42.8959 40.2875 45.4353 41.4483 48.0384C41.5227 48.2053 41.6057 48.3679 41.691 48.5282C41.7194 48.5766 41.7631 48.6117 41.8375 48.6996Z" fill="url(#paint2_linear_0_1)"/>
<path d="M47.9959 66.9235C48.7808 67.9055 49.5328 68.8193 50.2521 69.7551C50.7746 70.4361 50.4838 71.2796 49.6924 71.4795C49.2749 71.5849 48.9229 71.4399 48.6671 71.1258C47.3882 69.5508 46.1136 67.9714 44.8588 66.3765C44.4565 65.8647 44.5308 65.2716 45.0293 64.863C46.5706 63.6021 48.1184 62.35 49.6749 61.111C50.2193 60.6761 50.8402 60.753 51.2184 61.2538C51.5813 61.7349 51.4982 62.3302 50.9845 62.7586C50.2193 63.3934 49.441 64.0129 48.5534 64.7334C49.9745 64.7378 51.2359 64.5774 52.4558 64.2567C60.1031 62.2467 65.2188 57.4821 67.3743 49.8244C70.059 40.2841 65.1313 30.1089 56.0936 26.1087C56.0105 26.0714 55.9274 26.0341 55.8444 25.9967C55.1492 25.6826 54.8824 25.1532 55.1207 24.5689C55.3765 23.9472 55.9668 23.7429 56.6708 24.0482C58.3148 24.7578 59.867 25.6343 61.2858 26.7326C66.1938 30.5307 69.1517 35.5194 69.9846 41.6724C71.2264 50.8524 66.7185 59.7139 58.5531 64.1886C55.4487 65.8889 52.1213 66.7676 48.5928 66.8862C48.4201 66.8906 48.2452 66.906 47.9959 66.9235Z" fill="url(#paint3_linear_0_1)"/>
<path d="M47.961 22.1877C47.2308 21.276 46.4962 20.3776 45.7813 19.4638C45.2545 18.7872 45.4556 17.9898 46.2011 17.7196C46.6799 17.5438 47.069 17.7152 47.3663 18.082C48.6212 19.6307 49.8695 21.1838 51.1025 22.7478C51.5616 23.3278 51.5026 23.866 50.932 24.3338C49.4082 25.586 47.8735 26.8249 46.3344 28.0573C45.8251 28.4637 45.1889 28.4131 44.815 27.9716C44.4062 27.4883 44.4696 26.8798 45.0074 26.4273C45.7726 25.7859 46.5553 25.1642 47.4013 24.4744C46.3913 24.3866 45.4796 24.525 44.5855 24.6985C38.134 25.955 33.2676 29.45 30.1851 35.291C24.7895 45.5167 29.2209 58.2751 39.7387 62.9761C40.2372 63.198 40.705 63.4462 40.7553 64.0722C40.8231 64.8982 39.9726 65.41 39.1375 65.0388C35.9347 63.6197 33.1758 61.5987 30.9371 58.888C27.9836 55.3118 26.2871 51.2083 25.8958 46.5711C25.0235 36.2114 31.1623 26.7854 40.9695 23.4332C43.0858 22.7083 45.2676 22.3546 47.4997 22.2755C47.6374 22.2711 47.7861 22.3217 47.961 22.1877Z" fill="url(#paint4_linear_0_1)"/>
<defs>
<linearGradient id="paint0_linear_0_1" x1="96.0022" y1="88.0032" x2="-17.0735" y2="46.341" gradientUnits="userSpaceOnUse">
<stop stop-color="#52FCA9"/>
<stop offset="1" stop-color="#5D0EC1"/>
</linearGradient>
<linearGradient id="paint1_linear_0_1" x1="96.0022" y1="88.0035" x2="-17.0731" y2="46.3408" gradientUnits="userSpaceOnUse">
<stop stop-color="#52FCA9"/>
<stop offset="1" stop-color="#5D0EC1"/>
</linearGradient>
<linearGradient id="paint2_linear_0_1" x1="57.7432" y1="59.0061" x2="33.0436" y2="53.1595" gradientUnits="userSpaceOnUse">
<stop stop-color="#52FCA9"/>
<stop offset="1" stop-color="#5D0EC1"/>
</linearGradient>
<linearGradient id="paint3_linear_0_1" x1="70.1885" y1="71.5136" x2="37.0499" y2="65.4976" gradientUnits="userSpaceOnUse">
<stop stop-color="#52FCA9"/>
<stop offset="1" stop-color="#5D0EC1"/>
</linearGradient>
<linearGradient id="paint4_linear_0_1" x1="51.4082" y1="65.1617" x2="18.2663" y2="59.1319" gradientUnits="userSpaceOnUse">
<stop stop-color="#52FCA9"/>
<stop offset="1" stop-color="#5D0EC1"/>
</linearGradient>
</defs>
</svg>
